<svg width="721" height="679" viewBox="0 0 721 679" fill="none" xmlns="http://www.w3.org/2000/svg">
<path d="M334 141.051C250.128 83.781 116.674 148.687 126 285.234C141.902 518.052 304.136 545.096 445.999 518.052C631.635 482.664 674.464 270.297 503.054 285.234C365.493 297.221 438.84 212.639 334 141.051Z" fill="#FCDDD4"/>
<mask id="mask0_432_34" style="mask-type:alpha" maskUnits="userSpaceOnUse" x="125" y="120" width="487" height="407">
<path d="M333.999 141.052C250.127 83.7812 116.673 148.687 125.999 285.234C141.901 518.052 304.135 545.096 445.998 518.052C631.634 482.664 674.463 270.298 503.053 285.234C365.492 297.221 438.839 212.64 333.999 141.052Z" fill="#FCDDD4"/>
</mask>
<g mask="url(#mask0_432_34)">
<path opacity="0.7" d="M101.071 156.138C128.702 144.006 193.879 126.525 233.539 153.649C283.115 187.555 129.75 231.389 176.947 257.186C224.144 282.983 312.336 174.591 346.422 193.222C380.509 211.854 259.69 261.561 294.844 287.585C329.998 313.608 433.099 199.748 475.768 221.368C518.436 242.988 373.763 305.189 441.935 342.452" stroke="url(#paint0_linear_432_34)" stroke-width="2"/>
<path d="M271 545.051C271 517.437 293.386 495.051 321 495.051L588 495.051L588 605.051L271 605.051L271 545.051Z" fill="#F58A6B"/>
</g>
<defs>
<linearGradient id="paint0_linear_432_34" x1="310.408" y1="178.118" x2="227.956" y2="328.965" gradientUnits="userSpaceOnUse">
<stop stop-color="#F37753"/>
<stop offset="1" stop-color="white" stop-opacity="0"/>
</linearGradient>
</defs>
</svg>
