<svg width="1600" height="902" fill="none" xmlns="http://www.w3.org/2000/svg"><path d="M1285 0H0v800h1185c55.23 0 100-44.772 100-100V0z" fill="url(#paint0_linear_487_37)"/><mask id="mask0_487_37" style="mask-type:alpha" maskUnits="userSpaceOnUse" x="0" y="0" width="1285" height="800"><path d="M1285 0H0v800h1185c55.23 0 100-44.772 100-100V0z" fill="url(#paint1_linear_487_37)"/></mask><g mask="url(#mask0_487_37)"><path d="M1325.57 344.525h-10.83a4.062 4.062 0 00-4.06 4.061v244.278a5.585 5.585 0 01-11.17 0V436.796c0-5.523-4.48-10-10-10h-10.46c-5.52 0-10 4.477-10 10v9.794c0 5.523-4.48 10-10 10h-65.98c-4.21 0-7.62 3.41-7.62 7.617v4.234a3.38 3.38 0 01-3.38 3.384 3.389 3.389 0 00-3.39 3.385v54.343a8.29 8.29 0 01-8.29 8.292 8.29 8.29 0 00-8.29 8.292v36.217c0 5.523-4.48 10-10 10h-.99c-5.52 0-10 4.477-10 10v52.975a3.718 3.718 0 01-3.72 3.723 3.718 3.718 0 01-3.72-3.723V348.248a3.051 3.051 0 00-3.05-3.046 3.051 3.051 0 01-3.05-3.046v-26.919a5.24 5.24 0 00-5.24-5.246c-2.9 0-5.25-2.349-5.25-5.246v-26.072a3.552 3.552 0 00-3.55-3.554 3.552 3.552 0 01-3.55-3.554v-21.318c0-5.523-4.48-10-10-10h-25.36c-5.52 0-10 4.477-10 10v21.318a3.552 3.552 0 01-3.55 3.554 3.56 3.56 0 00-3.56 3.554v26.072a5.24 5.24 0 01-5.24 5.246c-2.9 0-5.25 2.349-5.25 5.246v27.088a2.534 2.534 0 01-2.54 2.538c-1.4 0-2.53 1.137-2.53 2.539v209.236a5.93 5.93 0 01-5.93 5.923 5.92 5.92 0 00-5.92 5.923v83.291a7.279 7.279 0 01-7.28 7.277h-6.6a.674.674 0 01-.67-.678.682.682 0 00-.68-.677h-2.2c-.65 0-1.18-.53-1.18-1.185 0-.654.53-1.185 1.18-1.185h1.18c.94 0 1.7-.758 1.7-1.692 0-.935-.76-1.693-1.7-1.693h-1.01a1.35 1.35 0 01-1.35-1.355c0-.747.6-1.354 1.35-1.354h1.01c.94 0 1.7-.758 1.7-1.693s-.76-1.692-1.7-1.692h-1.18c-.65 0-1.18-.531-1.18-1.185 0-.655.53-1.185 1.18-1.185h1.18c.94 0 1.7-.758 1.7-1.693s-.76-1.693-1.7-1.693h-1.18c-.65 0-1.18-.531-1.18-1.185s.53-1.185 1.18-1.185h1.18c.94 0 1.7-.758 1.7-1.693s-.76-1.693-1.7-1.693h-1.18c-.65 0-1.18-.53-1.18-1.185 0-.654.53-1.185 1.18-1.185h1.18c.94 0 1.7-.758 1.7-1.692 0-.935-.76-1.693-1.7-1.693h-1.18c-.65 0-1.18-.531-1.18-1.185 0-.655.53-1.185 1.18-1.185h1.18c.94 0 1.7-.758 1.7-1.693s-.76-1.693-1.7-1.693h-1.18c-.65 0-1.18-.53-1.18-1.185 0-.654.53-1.185 1.18-1.185h1.18c.94 0 1.7-.758 1.7-1.693s-.76-1.692-1.7-1.692h-1.18c-.65 0-1.18-.531-1.18-1.185 0-.655.53-1.185 1.18-1.185h1.18c.94 0 1.7-.758 1.7-1.693s-.76-1.693-1.7-1.693h-1.18c-.65 0-1.18-.531-1.18-1.185s.53-1.185 1.18-1.185h1.18c.94 0 1.7-.758 1.7-1.693s-.76-1.693-1.7-1.693h-1.18c-.65 0-1.18-.53-1.18-1.185 0-.654.53-1.185 1.18-1.185h1.18c.94 0 1.7-.758 1.7-1.692 0-.935-.76-1.693-1.7-1.693h-.33c-1.13 0-2.03-.909-2.03-2.031v-.678c0-1.122.9-2.031 2.03-2.031h.33c.94 0 1.7-.758 1.7-1.693s-.76-1.693-1.7-1.693h-1.18c-.65 0-1.18-.53-1.18-1.185 0-.654.53-1.185 1.18-1.185h1.18c.94 0 1.7-.758 1.7-1.693s-.76-1.692-1.7-1.692h-1.18c-.65 0-1.18-.531-1.18-1.185 0-.655.53-1.185 1.18-1.185h1.18c.94 0 1.7-.758 1.7-1.693s-.76-1.693-1.7-1.693h-1.18c-.65 0-1.18-.531-1.18-1.185s.53-1.185 1.18-1.185h1.18c.94 0 1.7-.758 1.7-1.693s-.76-1.693-1.7-1.693h-1.18c-.65 0-1.18-.53-1.18-1.185 0-.654.53-1.185 1.18-1.185h1.18c.94 0 1.7-.758 1.7-1.692 0-.935-.76-1.693-1.7-1.693h-1.18c-.65 0-1.18-.531-1.18-1.185 0-.655.53-1.185 1.18-1.185h1.18c.94 0 1.7-.758 1.7-1.693s-.76-1.693-1.7-1.693h-1.18c-.65 0-1.18-.53-1.18-1.185 0-.654.53-1.185 1.18-1.185h1.18c.94 0 1.7-.758 1.7-1.693s-.76-1.692-1.7-1.692h-1.18c-.65 0-1.18-.531-1.18-1.185 0-.655.53-1.185 1.18-1.185h1.18c.94 0 1.7-.758 1.7-1.693s-.76-1.693-1.7-1.693h-1.18c-.65 0-1.18-.531-1.18-1.185s.53-1.185 1.18-1.185h1.18c.94 0 1.7-.758 1.7-1.693s-.76-1.693-1.7-1.693h-1.18c-.65 0-1.18-.53-1.18-1.185 0-.654.53-1.185 1.18-1.185h1.18c.94 0 1.7-.758 1.7-1.692 0-.935-.76-1.693-1.7-1.693h-1.18c-.65 0-1.18-.531-1.18-1.185 0-.655.53-1.185 1.18-1.185h1.18c.94 0 1.7-.758 1.7-1.693s-.76-1.693-1.7-1.693h-1.18c-.65 0-1.18-.53-1.18-1.185 0-.654.53-1.185 1.18-1.185h1.18c.94 0 1.7-.758 1.7-1.693s-.76-1.692-1.7-1.692h-1.18c-.65 0-1.18-.531-1.18-1.185 0-.655.53-1.185 1.18-1.185h1.18c.94 0 1.7-.758 1.7-1.693s-.76-1.693-1.7-1.693h-.33c-1.13 0-2.03-.909-2.03-2.031v-1.355c0-1.122.9-2.031 2.03-2.031h.33c.94 0 1.7-.758 1.7-1.693s-.76-1.693-1.7-1.693h-1.18c-.65 0-1.18-.53-1.18-1.185 0-.654.53-1.185 1.18-1.185h1.18c.94 0 1.7-.758 1.7-1.693 0-.934-.76-1.692-1.7-1.692h-1.18c-.65 0-1.18-.531-1.18-1.185 0-.655.53-1.185 1.18-1.185h1.18c.94 0 1.7-.758 1.7-1.693s-.76-1.693-1.7-1.693h-1.18c-.65 0-1.18-.531-1.18-1.185s.53-1.185 1.18-1.185h1.18c.94 0 1.7-.758 1.7-1.693s-.76-1.693-1.7-1.693h-.33c-1.13 0-2.03-.909-2.03-2.03v-2.202a1.53 1.53 0 00-1.53-1.523c-.84 0-1.52-.682-1.52-1.523v-2.201a3.728 3.728 0 00-3.73-3.725h-.33a4.055 4.055 0 01-4.06-4.061v-10.837a3.05 3.05 0 00-3.05-3.046 3.046 3.046 0 01-3.046-3.046v-11.585a10 10 0 00-7.867-9.77l-10.748-2.345a5.678 5.678 0 01-4.4-5.532v-31.542a1.185 1.185 0 00-2.369 0v31.901a3.047 3.047 0 01-3.723 2.972 3.048 3.048 0 00-3.723 2.972v23.437a2.538 2.538 0 01-2.538 2.538 2.538 2.538 0 00-2.538 2.539v11.344a4.062 4.062 0 01-4.062 4.061h-.845a3.216 3.216 0 00-3.216 3.217v1.693c0 .841-.682 1.523-1.523 1.523-.841 0-1.523.682-1.523 1.523v1.355a2.879 2.879 0 01-2.878 2.878h-29.768c-5.522 0-10 4.477-10 10v17.58c0 5.523-4.477 10-10 10H867.83a9.995 9.995 0 00-3.63.683l-30.403 11.844a2.693 2.693 0 00-1.692 2.5v11.721a2.708 2.708 0 002.708 2.708h.676a2.03 2.03 0 110 4.062h-1.352a2.031 2.031 0 100 4.063h1.352a2.031 2.031 0 010 4.063h-1.352a2.032 2.032 0 000 4.063h1.352a2.03 2.03 0 110 4.062h-1.352a2.031 2.031 0 100 4.063h1.352a2.03 2.03 0 110 4.063h-1.352a2.032 2.032 0 000 4.063h1.86a1.523 1.523 0 010 3.047h-30.778a10 10 0 01-9.377-6.525l-8.052-21.73c-1.401-3.779-6.749-3.773-8.14.01-1.696 4.612-8.822 3.289-8.812-1.625.007-3.361.007-6.721.007-10.081v-14.22c0-13.542 0-27.085-.338-40.627 0-5.756-.339-11.85-.339-17.606-.338-12.527-.677-25.054-1.354-37.919-.338-6.094-.338-12.188-.677-18.283-.676-11.849-1.015-23.36-1.692-35.21 0-1.355-.338-2.709-.338-4.063-.677-10.496-1.354-20.653-2.031-31.148-1.354-18.96-3.046-37.919-4.738-56.879a181.81 181.81 0 00-.473-5.289c-.528-5.22-4.946-9.269-10.193-9.269h-63.42c-4.854 0-9.174 3.61-9.174 8.464l-1.015 12.188c-.339 3.386-.677 7.11-1.016 10.496-.676 6.432-1.015 12.865-1.692 19.298-.338 3.047-.338 5.756-.677 8.803-.338 5.417-.677 10.834-1.353 16.251-.339 2.37-.339 4.74-.339 6.771-.338 7.11-1.015 14.22-1.354 20.991 0 2.37-.338 4.74-.338 7.11-.339 7.448-.677 14.558-1.016 22.007 0 1.693-.338 3.047-.338 4.74-.338 6.771-.677 13.881-1.015 20.652v4.063c-.339 7.787-.677 15.574-.677 23.361v4.74c-.339 8.125-.339 16.251-.677 24.038v1.016c0 8.125-.338 16.251-.338 24.038v38.09a7.277 7.277 0 01-7.277 7.277 7.277 7.277 0 00-7.277 7.277v81.261a8.63 8.63 0 01-8.631 8.63h-7.784a.846.846 0 010-1.692h.677c.841 0 1.523-.682 1.523-1.523v-.678c0-.842-.682-1.523-1.523-1.523a1.523 1.523 0 01-1.523-1.524v-1.355c0-.841.682-1.523 1.523-1.523.841 0 1.523-.682 1.523-1.523v-.678c0-.841-.682-1.523-1.523-1.523a1.523 1.523 0 01-1.523-1.523v-1.694c0-.841.682-1.523 1.523-1.523.841 0 1.523-.682 1.523-1.523v-.678c0-.841-.682-1.523-1.523-1.523a1.523 1.523 0 01-1.523-1.523v-1.694c0-.841.682-1.523 1.523-1.523.841 0 1.523-.682 1.523-1.523v-.678c0-.841-.682-1.523-1.523-1.523a1.523 1.523 0 01-1.523-1.523v-1.694c0-.841.682-1.523 1.523-1.523.841 0 1.523-.682 1.523-1.523v-.678c0-.842-.682-1.523-1.523-1.523a1.523 1.523 0 01-1.523-1.524v-1.693c0-.841.682-1.523 1.523-1.523.841 0 1.523-.682 1.523-1.523v-.679c0-.841-.682-1.523-1.523-1.523a1.523 1.523 0 01-1.523-1.523v-1.693c0-.842.682-1.523 1.523-1.523.841 0 1.523-.682 1.523-1.524v-.678c0-.841-.682-1.523-1.523-1.523a1.523 1.523 0 01-1.523-1.523v-1.694c0-.841.682-1.523 1.523-1.523.841 0 1.523-.681 1.523-1.523v-.678c0-.841-.682-1.523-1.523-1.523a1.523 1.523 0 01-1.523-1.523v-1.694c0-.841.682-1.523 1.523-1.523.841 0 1.523-.682 1.523-1.523v-.678c0-.841-.682-1.523-1.523-1.523a1.523 1.523 0 01-1.523-1.523V593.2c0-.841.682-1.523 1.523-1.523.841 0 1.523-.682 1.523-1.523v-.678c0-.841-.682-1.523-1.523-1.523a1.523 1.523 0 01-1.523-1.523v-1.694c0-.841.682-1.523 1.523-1.523.841 0 1.523-.682 1.523-1.523v-2.032c0-.842-.682-1.523-1.523-1.523a1.523 1.523 0 01-1.523-1.524v-1.693c0-.841.682-1.523 1.523-1.523.841 0 1.523-.682 1.523-1.523v-.678c0-.842-.682-1.524-1.523-1.524a1.523 1.523 0 01-1.523-1.523v-2.032c0-.841.682-1.523 1.523-1.523.841 0 1.523-.682 1.523-1.523v-.678c0-.841-.682-1.523-1.523-1.523a1.523 1.523 0 01-1.523-1.523v-1.694c0-.841.682-1.523 1.523-1.523.841 0 1.523-.682 1.523-1.523v-.678c0-.841-.682-1.523-1.523-1.523a1.523 1.523 0 01-1.523-1.523v-1.694c0-.841.682-1.523 1.523-1.523.841 0 1.523-.682 1.523-1.523v-.678c0-.842-.682-1.524-1.523-1.524a1.523 1.523 0 01-1.523-1.523v-1.693c0-.842.682-1.523 1.523-1.523.841 0 1.523-.682 1.523-1.523v-.679c0-.841-.682-1.523-1.523-1.523a1.523 1.523 0 01-1.523-1.523v-1.693c0-.842.682-1.524 1.523-1.524.841 0 1.523-.681 1.523-1.523v-.678c0-.841-.682-1.523-1.523-1.523a1.523 1.523 0 01-1.523-1.523v-1.694c0-.841.682-1.523 1.523-1.523.841 0 1.523-.682 1.523-1.523v-.678c0-.841-.682-1.523-1.523-1.523a1.523 1.523 0 01-1.523-1.523v-1.694c0-.841.682-1.523 1.523-1.523.841 0 1.523-.682 1.523-1.523v-.678c0-.841-.682-1.523-1.523-1.523a1.523 1.523 0 01-1.523-1.523v-1.694c0-.841.682-1.523 1.523-1.523.841 0 1.523-.682 1.523-1.523v-2.032c0-.842-.682-1.523-1.523-1.523a1.523 1.523 0 01-1.523-1.523v-1.694c0-.841.682-1.523 1.523-1.523.841 0 1.523-.682 1.523-1.523v-.678c0-.842-.682-1.524-1.523-1.524a1.523 1.523 0 01-1.523-1.523v-1.693c0-.842.682-1.523 1.523-1.523.841 0 1.523-.682 1.523-1.524v-.678c0-.841-.682-1.523-1.523-1.523a1.523 1.523 0 01-1.523-1.523v-1.693c0-.842.682-1.524 1.523-1.524.841 0 1.523-.681 1.523-1.523v-.678c0-.841-.682-1.523-1.523-1.523a1.523 1.523 0 01-1.523-1.523v-5.418c0-.841.682-1.523 1.523-1.523.841 0 1.523-.682 1.523-1.523v-1.016a2.539 2.539 0 00-2.539-2.539h-4.906a2.37 2.37 0 01-2.37-2.37v-.558c0-1.001.811-1.812 1.812-1.812 1.49 0 2.344-1.697 1.456-2.893l-12.142-16.36a7.657 7.657 0 00-6.147-3.093h-.207a7.448 7.448 0 01-7.449-7.448c0-.748-.677-1.622-.677-2.37v-19.468a1.185 1.185 0 00-2.369 0v19.521c0 .719-.676 1.598-.676 2.317a7.448 7.448 0 01-7.449 7.448h-.207a7.657 7.657 0 00-6.148 3.094l-12.812 17.263c-.61.822-.023 1.989 1.001 1.989.688 0 1.246.558 1.246 1.246v1.124a2.37 2.37 0 01-2.37 2.37h-4.906a2.539 2.539 0 00-2.539 2.539v.678a1.86 1.86 0 001.861 1.861c1.028 0 1.862.834 1.862 1.862v4.741a1.862 1.862 0 01-1.862 1.861 1.862 1.862 0 000 3.724c1.028 0 1.862.834 1.862 1.862v1.017a1.862 1.862 0 01-1.862 1.861 1.862 1.862 0 000 3.725c1.028 0 1.862.833 1.862 1.861v1.017a1.862 1.862 0 01-1.862 1.861 1.862 1.862 0 000 3.725c1.028 0 1.862.833 1.862 1.861v1.017a1.862 1.862 0 01-1.862 1.862 1.862 1.862 0 000 3.724c1.028 0 1.862.833 1.862 1.861v1.017a1.862 1.862 0 01-1.862 1.862 1.862 1.862 0 000 3.724c1.028 0 1.862.833 1.862 1.861v1.017a1.862 1.862 0 01-1.862 1.862 1.862 1.862 0 000 3.724c1.028 0 1.862.833 1.862 1.862v1.016a1.862 1.862 0 01-1.862 1.862 1.862 1.862 0 000 3.724c1.028 0 1.862.834 1.862 1.862v1.017a1.862 1.862 0 01-1.862 1.861 1.862 1.862 0 000 3.724c1.028 0 1.862.834 1.862 1.862v1.017a1.862 1.862 0 01-1.862 1.861 1.862 1.862 0 000 3.724c1.028 0 1.862.834 1.862 1.862v1.017a1.862 1.862 0 01-1.862 1.861 1.862 1.862 0 000 3.725c1.028 0 1.862.833 1.862 1.861v1.017a1.862 1.862 0 01-1.862 1.861 1.862 1.862 0 000 3.725c1.028 0 1.862.833 1.862 1.861v1.017a1.862 1.862 0 01-1.862 1.862 1.862 1.862 0 000 3.724c1.028 0 1.862.833 1.862 1.861v1.017a1.862 1.862 0 01-1.862 1.862 1.862 1.862 0 000 3.724c1.028 0 1.862.833 1.862 1.861v1.017a1.862 1.862 0 01-1.862 1.862 1.862 1.862 0 000 3.724h1.354a.509.509 0 010 1.016h-17.767a4.402 4.402 0 01-4.402-4.402V348.926l-.173-7.291a10 10 0 00-6.711-9.206l-10.079-3.507c-3.291-1.145-6.728 1.298-6.728 4.783v1.546a3.52 3.52 0 11-7.036-.071l.444-21.96a10 10 0 00-7.572-9.903l-21.387-5.348c-6.009-1.503-11.925 2.763-12.397 8.939l-3.159 41.341-.338 4.74-.339 3.724-.338 4.74-.339 3.724-.338 4.74-.339 3.724-.338 4.74-.338 3.724-.339 4.74-.338 3.725-.339 4.739-.338 3.725-.339 4.74-.338 3.724-.339 4.74-.338 3.724-.339 4.74-.338 3.724-.338 4.74-.339 3.724-.338 4.74-.339 3.724-.019.264a10 10 0 01-3.876 7.213l-1.745 1.342a9.915 9.915 0 00-3.837 7.094l-.338 3.724-.338 4.74-.339 3.724-.338 4.74-.339 3.724-.338 4.74-.339 3.724-.338 4.402c0 .935-.758 1.693-1.693 1.693h-27.906c-5.523 0-10 4.477-10 10v38.585a5.246 5.246 0 01-5.246 5.246 5.246 5.246 0 00-5.246 5.246v104.113a7.107 7.107 0 11-14.215 0V239.569a2.707 2.707 0 00-2.708-2.708 2.707 2.707 0 01-2.707-2.708v-37.061c0-5.523-4.478-10-10-10h-57.506c-5.523 0-10 4.477-10 10v37.4a2.708 2.708 0 01-2.708 2.708 2.707 2.707 0 00-2.707 2.707v180.289a4.908 4.908 0 01-4.908 4.907h-3.892c-.561 0-1.016.455-1.016 1.016v.339a.677.677 0 01-.677.677.676.676 0 00-.676.676v3.725c0 .374.303.677.676.677.374 0 .677.303.677.677v.339a.677.677 0 01-.677.677.677.677 0 00-.676.677v3.724c0 .374.303.677.676.677.374 0 .677.303.677.677V440a.677.677 0 01-.677.677.677.677 0 00-.676.677v3.725c0 .374.303.677.676.677.374 0 .677.303.677.676v.34a.677.677 0 01-.677.676.677.677 0 00-.676.677v3.725c0 .374.303.677.676.677.374 0 .677.303.677.677v.339a.677.677 0 01-.677.677.677.677 0 00-.676.677v3.724c0 .374.303.677.676.677.374 0 .677.303.677.677v.339a.677.677 0 01-.677.677.677.677 0 00-.676.677v3.725c0 .373.303.677.676.677.374 0 .677.303.677.676v.339a.677.677 0 01-.677.677.677.677 0 00-.676.677v3.725c0 .374.303.677.676.677.374 0 .677.303.677.677v.339a.677.677 0 01-.677.677.677.677 0 00-.676.677v3.724c0 .374.303.677.676.677.374 0 .677.303.677.677v.339a.677.677 0 01-.677.677.677.677 0 00-.676.677v3.725c0 .373.303.676.676.676.374 0 .677.303.677.677v.339a.677.677 0 01-.677.677.677.677 0 00-.676.677v3.725c0 .374.303.677.676.677.374 0 .677.303.677.677v.339a.677.677 0 01-.677.677.676.676 0 00-.676.676v3.725c0 .374.303.677.676.677.374 0 .677.303.677.677v.339a.677.677 0 01-.677.677.677.677 0 00-.676.677v3.724c0 .374.303.677.676.677.374 0 .677.303.677.677v.339a.677.677 0 01-.677.677.677.677 0 00-.676.677v3.725c0 .374.303.677.676.677.374 0 .677.303.677.677v.339a.677.677 0 01-.677.676.677.677 0 00-.676.677v3.725c0 .374.303.677.676.677.374 0 .677.303.677.677v.339a.677.677 0 01-.677.677.677.677 0 00-.676.677v3.724c0 .374.303.677.676.677.374 0 .677.303.677.677v7.11a.677.677 0 01-.677.677.677.677 0 00-.676.677v3.725c0 .374.303.677.676.677.374 0 .677.303.677.677v.339a.677.677 0 01-.677.677.677.677 0 00-.676.677v.846c0 .842-.683 1.524-1.524 1.524h-11.153c-5.523 0-10-4.477-10-10v-91.388c0-5.523-4.477-10-10-10h-39.568c-5.522 0-10 4.477-10 10v53.145a8.63 8.63 0 01-8.63 8.631h-6.599a2.032 2.032 0 01-2.032-2.032 2.03 2.03 0 00-2.031-2.031h-1.523a3.554 3.554 0 01-3.553-3.554V227.042a2.707 2.707 0 00-2.708-2.708 2.708 2.708 0 01-2.708-2.708V148c0-5.523-4.477-10-10-10H92.093c-5.523 0-10 4.477-10 10v73.627a2.707 2.707 0 01-2.708 2.707 2.708 2.708 0 00-2.707 2.708v358.205a6.43 6.43 0 01-12.861 0V456.771c0-5.523-4.478-10-10-10H51.14c-5.523 0-10-4.477-10-10v-50.604a3.723 3.723 0 00-3.723-3.723 3.723 3.723 0 01-3.723-3.723v-15.394c0-5.522-4.477-10-10-10h-85.597c-5.523 0-10 4.478-10 10v15.394a3.723 3.723 0 01-3.723 3.723 3.723 3.723 0 00-3.723 3.723v220.225c0 5.523-4.477 10-10 10h-4.369c-5.523 0-10-4.477-10-10V475.054c0-5.523-4.477-10-10-10h-69.69c-5.523 0-10 4.477-10 10v75.66c0 5.421-4.394 9.815-9.815 9.815-5.421 0-9.815 4.395-9.815 9.815v77.198a5.754 5.754 0 11-11.508 0V381.427a2.369 2.369 0 00-2.369-2.369h-1.353a1.016 1.016 0 010-2.031h1.353a2.369 2.369 0 002.369-2.369v-2.033a2.368 2.368 0 00-2.369-2.369h-1.353a1.016 1.016 0 010-2.032h1.353a2.368 2.368 0 002.369-2.369v-2.033a2.369 2.369 0 00-2.369-2.369h-1.353a1.015 1.015 0 110-2.031h1.353a2.369 2.369 0 002.369-2.37v-2.033a2.369 2.369 0 00-2.369-2.369h-1.692a.677.677 0 110-1.354h1.861a2.54 2.54 0 002.539-2.538v-1.695a2.538 2.538 0 00-2.539-2.538h-1.522a1.016 1.016 0 010-2.032h1.522a2.538 2.538 0 002.539-2.538v-1.695a2.538 2.538 0 00-2.539-2.538h-1.522a1.015 1.015 0 110-2.031h1.522a2.54 2.54 0 002.539-2.539v-1.694a2.54 2.54 0 00-2.539-2.539h-1.522a1.016 1.016 0 010-2.031h1.522a2.54 2.54 0 002.539-2.539v-17.942c0-3.287-1.651-6.326-4.117-8.499-10.139-8.93-24.356-28.008-24.652-54.307v-1.525a2.877 2.877 0 00-2.877-2.876h-1.014a1.861 1.861 0 00-1.862 1.862 1.862 1.862 0 01-1.862 1.862h-2.2a4.062 4.062 0 01-4.061-4.062v-53.326a1.523 1.523 0 00-3.046 0v56.88a.846.846 0 11-1.693 0V239.4a1.862 1.862 0 00-1.862-1.862h-2.368a1.862 1.862 0 00-1.862 1.862 1.861 1.861 0 01-1.862 1.862h-7.106a1.861 1.861 0 01-1.862-1.862 1.862 1.862 0 00-1.862-1.862h-1.184a3.046 3.046 0 00-3.046 3.046v.678c0 26.679-7.36 45.995-15.926 55.092-2.292 2.434-4.043 5.488-4.043 8.831v13.439c0 .094.076.17.169.17.094 0 .169.076.169.169v3.556a3.046 3.046 0 003.046 3.046h2.031a1.015 1.015 0 110 2.031h-2.031a3.047 3.047 0 00-3.046 3.047v.679a3.046 3.046 0 003.046 3.046h2.031a1.016 1.016 0 010 2.031h-2.2a3.215 3.215 0 00-3.215 3.215v.341a3.214 3.214 0 003.215 3.215h2.538a.678.678 0 110 1.355h-2.538a3.214 3.214 0 00-3.215 3.215v.341a3.215 3.215 0 003.215 3.215h2.2a1.015 1.015 0 110 2.031h-2.2a3.215 3.215 0 00-3.215 3.216v.34a3.215 3.215 0 003.215 3.216h2.2a1.016 1.016 0 010 2.031h-2.2a3.215 3.215 0 00-3.215 3.215v.341a3.214 3.214 0 003.215 3.215h2.2a1.016 1.016 0 010 2.032h-2.2a3.214 3.214 0 00-3.215 3.215v.341a3.214 3.214 0 003.215 3.215h2.2a1.015 1.015 0 110 2.031h-2.369a3.386 3.386 0 00-3.385 3.385v133.399c0 5.234-4.242 9.477-9.476 9.477-5.234 0-9.477 4.242-9.477 9.476v57.392a5.246 5.246 0 01-5.246 5.246 5.246 5.246 0 00-5.246 5.246v52.837c0 2.152-2.429 3.281-4.58 3.2a2.985 2.985 0 01-.353-.031l-.369-.052c-3.947-.552-6.882-3.896-6.882-7.881V529.134a10 10 0 00-5.972-9.152l-2.18-.96a1.606 1.606 0 00-.648-.136h-.507a2.54 2.54 0 01-2.539-2.54v-1.354a1.185 1.185 0 10-2.369 0c0 .654-.531 1.185-1.185 1.185h-.143c-.575 0-1.042.466-1.042 1.041 0 .555-.435 1.012-.989 1.04l-3.863.193a1.826 1.826 0 01-1.917-1.823c0-.691-.39-1.323-1.008-1.633l-.915-.457a3.488 3.488 0 00-1.661-.366l-19.799.591a2.062 2.062 0 00-2.001 2.061 2.062 2.062 0 01-2.061 2.062h-.308a2.369 2.369 0 00-2.369 2.369v22.503c0 5.523-4.477 10-10 10h-17.568c-5.523 0-10-4.477-10-10V385.49a4.4 4.4 0 00-4.4-4.4 4.4 4.4 0 01-4.4-4.4v-29.275c0-5.523-4.477-10-10-10h-15.044a5.756 5.756 0 01-5.755-5.756 5.755 5.755 0 00-5.756-5.755h-3.887a9.311 9.311 0 01-9.311-9.311 9.31 9.31 0 00-9.31-9.31h-57.519c-5.522 0-10 4.477-10 10v10.132c0 5.523-4.477 10-10 10h-18.583c-5.523 0-10 4.477-10 10v291.818c0 5.523-4.477 10-10 10h-.984c-5.523 0-10 4.477-10 10v9.64c0 5.421-4.395 9.815-9.815 9.815-5.421 0-9.816-4.394-9.816-9.815v-73.967c0-5.523-4.477-10-10-10h-10.46c-5.523 0-10-4.477-10-10v-20.431a.613.613 0 00-.339-.548.613.613 0 01-.338-.548v-3.545a6.347 6.347 0 00-1.329-3.887l-4.702-6.076a10 10 0 01-2.092-6.121v-5.98a3.47 3.47 0 00-1.015-2.452 3.463 3.463 0 01-1.016-2.451v-14.646a.507.507 0 10-1.015 0v14.885c0 .766-.305 1.501-.846 2.043a2.89 2.89 0 00-.846 2.043v7.502a9.998 9.998 0 01-1.807 5.733l-4.222 6.033a5.976 5.976 0 00-1.079 3.425v1.975c0 .763-.381 1.475-1.015 1.898a2.28 2.28 0 00-1.016 1.897v.869a3.485 3.485 0 01-1.692 2.989l-.417.251a2.628 2.628 0 00-1.275 2.253c0 .961-.525 1.846-1.369 2.306l-.493.269a3.573 3.573 0 00-1.861 3.136v31.029a6.492 6.492 0 01-7.108 6.463 6.093 6.093 0 01-6.092-6.092V537.35c0-5.523-4.477-10-10-10h-21.63c-5.522 0-10 4.477-10 10v27.737c0 5.523-4.477 10-10 10h-6.399c-5.523 0-10 4.478-10 10v20.303a3.215 3.215 0 01-3.215 3.215 3.216 3.216 0 00-3.216 3.216v37.921a2.538 2.538 0 11-5.076 0v-16.084a3.385 3.385 0 00-3.385-3.384 3.385 3.385 0 01-3.384-3.385V455.078c0-5.522-4.478-10-10-10h-47.876c-42.307 0-76.49 29.794-76.49 72.115v23.856c0 5.523-4.478 10-10 10h-3.877c-12.184 0-21.999 20.991-21.999 32.503v39.769c0 5.522-4.478 10-10.003 10h-15.87c-5.53 0-10-4.478-10-10v-37.556c0-5.523-4.48-10-10-10h-4.03c-5.53 0-10 4.477-10 10v87a5.247 5.247 0 01-5.25 5.246c-2.9 0-5.25-2.348-5.25-5.246v-48.756a2.87 2.87 0 00-2.87-2.877 2.879 2.879 0 01-2.88-2.877v-32.49c0-5.523-4.48-10-10-10h-1.32c-5.52 0-10-4.478-10-10V530.24c0-5.523-4.48-10-10-10H-1126c-5.52 0-10 4.477-10 10V732c0 5.523 4.48 10 10 10h2470c5.52 0 10-4.477 10-10V354.525c0-5.523-4.48-10-10-10h-18.43zM945.149 536.322c0 .654-.531 1.185-1.185 1.185h-2.2a.338.338 0 01-.338-.339v-.846c0-.655.53-1.185 1.185-1.185h1.353c.654 0 1.185.53 1.185 1.185zm0-5.756c0 .655-.531 1.185-1.185 1.185h-1.353a1.185 1.185 0 110-2.37h1.353c.654 0 1.185.531 1.185 1.185zm0-6.094c0 .654-.531 1.185-1.185 1.185h-1.353a1.185 1.185 0 110-2.37h1.353c.654 0 1.185.531 1.185 1.185zm0-6.094c0 .654-.531 1.185-1.185 1.185h-1.353a1.184 1.184 0 110-2.37h1.353c.654 0 1.185.53 1.185 1.185zm0-6.094c0 .654-.531 1.185-1.185 1.185h-1.353a1.184 1.184 0 110-2.37h1.353c.654 0 1.185.53 1.185 1.185zm0-6.095c0 .655-.531 1.185-1.185 1.185h-1.353a1.184 1.184 0 110-2.369h1.353c.654 0 1.185.53 1.185 1.184zm0-5.755c0 .654-.531 1.185-1.185 1.185h-1.353a1.184 1.184 0 110-2.37h1.353c.654 0 1.185.53 1.185 1.185z" fill="url(#paint2_linear_487_37)"/><path d="M1098.89 495.501c-58.78 0-106.326 100.894-106.326 225.245h212.766c0-124.477-47.67-225.245-106.44-225.245z" fill="url(#paint3_linear_487_37)"/><path d="M1098.89 495.501c-58.78 0-106.326 100.894-106.326 225.245h212.766c0-124.477-47.67-225.245-106.44-225.245z" fill="url(#paint4_linear_487_37)"/><mask id="mask1_487_37" style="mask-type:alpha" maskUnits="userSpaceOnUse" x="992" y="495" width="214" height="226"><path d="M1098.89 495.501c-58.78 0-106.326 100.894-106.326 225.245h212.766c0-124.477-47.67-225.245-106.44-225.245z" fill="url(#paint5_linear_487_37)"/></mask><g mask="url(#mask1_487_37)"><path opacity=".2" d="M1009.25 515.899c33.69-15.346 101.72-40.448 104.35-18.087 3.29 27.952-191.451 147.981-124.895 122.495 66.555-25.485 124.075-95.365 138.865-70.702 14.79 24.664-129.827 126.606-81.35 121.674 48.48-4.933 108.46-118.385 127.36-100.298 18.9 18.086-124.07 143.87-92.02 154.557 32.04 10.688 119.96-167.711 155.29-171.822" stroke="url(#paint6_linear_487_37)" stroke-width="2"/></g><path opacity=".3" d="M1191.54 720.746h13.79c0-124.477-47.67-225.245-106.44-225.245-2.32 0-4.62.157-6.9.465 55.56 7.518 99.55 105.21 99.55 224.78z" fill="#C9D983"/><path d="M1216.82 556.573c-43 0-77.81 73.833-77.81 164.83h155.63c-.12-90.997-34.93-164.83-77.82-164.83z" fill="url(#paint7_linear_487_37)"/><mask id="mask2_487_37" style="mask-type:alpha" maskUnits="userSpaceOnUse" x="1139" y="556" width="156" height="166"><path d="M1216.82 556.573c-43 0-77.81 73.833-77.81 164.83h155.63c-.12-90.997-34.93-164.83-77.82-164.83z" fill="url(#paint8_linear_487_37)"/></mask><g mask="url(#mask2_487_37)"><path opacity=".2" d="M1192.37 519.142c-30.53 49.731-79.45 138.99-30.86 98.179 60.74-51.015 118.59-34.652 94.49 0-24.11 34.651-94.49 16.363-87.74 52.939 5.4 29.261 83.88-14.117 122.44-39.464" stroke="url(#paint9_linear_487_37)" stroke-width="2"/></g><path opacity=".3" fill-rule="evenodd" clip-rule="evenodd" d="M1278.23 721.403h16.41c-.12-90.997-34.93-164.83-77.82-164.83-2.77 0-5.51.308-8.22.908 39.04 8.697 69.51 78.8 69.63 163.922z" fill="#C9D983"/><path d="M910.478 476.457c-68.167 0-123.458 108.79-123.458 242.976h246.92c-.13-134.186-55.295-242.976-123.462-242.976z" fill="url(#paint10_linear_487_37)"/><mask id="mask3_487_37" style="mask-type:alpha" maskUnits="userSpaceOnUse" x="787" y="476" width="247" height="244"><path d="M910.478 476.457c-68.167 0-123.458 108.79-123.458 242.976h246.92c-.13-134.186-55.295-242.976-123.462-242.976z" fill="url(#paint11_linear_487_37)"/></mask><g mask="url(#mask3_487_37)"><path opacity=".2" d="M797.526 525.485c13.012-15.356 42.242-42.717 55.068-29.316 16.033 16.752-18.123 74.684 4.183 81.664 22.306 6.98 53.673-102.603 80.859-92.133 27.185 10.469-117.107 180.079-66.918 186.361 50.188 6.282 73.191-145.18 94.8-134.711 21.609 10.47-48.794 92.134-24.397 115.865 24.397 23.732 36.945-87.945 56.462-75.382 19.517 12.564 5.577 75.382-13.244 117.959" stroke="url(#paint12_linear_487_37)" stroke-width="2"/></g><path opacity=".2" d="M1006.35 719.433h27.59c-.13-134.186-55.295-242.976-123.462-242.976-4.662 0-9.264.509-13.791 1.5 61.665 13.499 109.553 116.466 109.663 241.476z" fill="#C9D983"/><path d="M1086.41 570.526h-2.29V718.23h2.29V570.526z" fill="#0C5E59"/><path d="M1101.91 561.174c-4.9 0-9.46 3.535-12.65 6.729 2.16-3.08 5.13-6.843 7.41-7.528 3.99-1.254 7.18-.684 7.18-.684s-3.65-5.133-9.12-2.737c-2.4 1.026-4.45 4.448-5.93 7.755.8-3.079 1.48-6.729.91-10.037-1.37-8.44-10.71-9.124-10.71-9.124s5.24 7.3 6.15 15.854c.12 1.14.23 2.281.34 3.307-.79-4.904-2.73-10.835-7.52-14.029-11.86-7.87-19.27 5.931-19.27 5.931s6.73-4.22 15.62.229c7.07 3.535 10.03 11.063 10.95 14.143-1.14-2.282-6.05-10.95-13.8-12.205-11.74-1.938-14.71 12.889-14.71 12.889s6.73-5.361 15.05-5.019c6.5.343 11.06 2.966 13.34 5.019-1.25-.342-3.87-.913-7.07-1.027-10.37-.114-12.54 13.801-12.54 13.801l19.73-12.09c-.92 1.597-2.63 5.019-3.54 7.3-1.37 3.194-.45 10.379-.45 10.379s3.19-5.475 4.1-9.01c.91-3.422.68-6.958.57-8.669l13.34 14.486s3.3-8.783-6.84-13.003a109.88 109.88 0 00-3.42-1.369c2.39.342 5.36 1.369 8.43 3.308 5.82 3.764 9.58 9.01 9.58 9.01s3.65-10.607-5.24-14.941c-2.97-1.369-6.27-1.255-9.12-.57 2.16-1.255 5.01-2.167 8.32-1.711 8.09 1.026 10.37 6.729 10.37 6.729s2.28-13.116-9.46-13.116z" fill="url(#paint13_linear_487_37)"/><path d="M999.418 479.744h-3.648v241.231h3.648V479.744z" fill="#0C5E59"/><path d="M1022.99 458.951c-8.9 0-17.3 6.381-23.149 12.252 3.939-5.615 9.419-12.38 13.609-13.784 7.13-2.297 13.11-1.149 13.11-1.149s-6.75-9.444-16.67-4.977c-4.45 1.914-8.14 8.168-10.812 14.167 1.522-5.616 2.542-12.253 1.652-18.379-2.415-15.316-19.59-16.593-19.59-16.593s9.542 13.274 11.323 28.973c.254 2.042.381 4.084.509 5.999-1.527-9.062-5.089-19.911-13.74-25.654-21.499-14.295-34.984 10.976-34.984 10.976s12.34-7.658 28.496.511c12.722 6.381 18.192 20.293 19.973 25.781-2.163-4.211-10.941-19.91-25.189-22.335-21.372-3.574-26.842 23.612-26.842 23.612s12.212-9.828 27.351-9.19c11.704.511 20.228 5.361 24.426 9.19-2.163-.638-7.124-1.787-12.849-1.787-18.955-.255-22.899 25.144-22.899 25.144l36.002-22.081c-1.527 2.936-4.707 9.062-6.488 13.402-2.417 5.871-.89 18.889-.89 18.889s5.851-9.955 7.505-16.464c1.654-6.254 1.272-12.764 1.018-15.827l24.428 26.42s5.98-16.082-12.34-23.867c-2.42-1.021-4.58-1.915-6.236-2.553 4.456.638 9.796 2.425 15.266 5.999 10.69 6.892 17.43 16.337 17.43 16.337s6.61-19.528-9.67-27.186c-5.34-2.553-11.45-2.17-16.67-1.021 3.95-2.297 9.04-3.957 15.27-3.191 14.76 1.787 18.83 12.381 18.83 12.381s4.2-24.123-17.18-23.995z" fill="url(#paint14_linear_487_37)"/><g clip-path="url(#clip0_487_37)"><path d="M1315 672.179h-126.08v53.666H1315v-53.666z" fill="#F9F8EF"/><path fill-rule="evenodd" clip-rule="evenodd" d="M1252.66 658.19v.123c1-2.798 3-7.252 6.37-13.897 6.69-12.718 14.15-22.49 14.15-22.49s-3.27 10.857-9.95 23.576c-5.91 11.385-9.15 15.977-10.57 16.672v.649c1.71-2.26 5.48-6.137 12.12-12.203 11.04-9.927 21.93-17.061 21.93-17.061s-7 9.151-18.04 19.233c-6.47 5.826-10.76 9.321-13.43 11.114 2.72-1.691 6.96-4.009 13.12-7.082 13.68-6.824 26.12-11.012 26.12-11.012s-9.64 6.98-23.32 13.804c-10.42 5.316-16.06 7.573-18.5 8.004v.466c2.19-1.218 7.8-3.174 18.5-6.143 15.08-4.188 28.29-6.049 28.29-6.049s-11.5 5.118-26.58 9.306c-4.92 1.365-8.84 2.367-11.92 3.067 3.12-.519 7.14-1.08 12.23-1.671 16.01-2.017 29.38-1.862 29.38-1.862s-12.59 3.413-28.6 5.274c-12.9 1.624-19.24 1.839-21.3 1.376v.33h-1.56v-.222c-.28.083-.68.153-1.24.222h-4.51c-3.42-.155-8.55-.465-15.7-1.396-16.02-2.016-28.61-5.273-28.61-5.273s13.37-.155 29.39 1.861c4.81.559 8.66 1.076 11.7 1.551-2.99-.692-6.75-1.658-11.39-2.947-15.24-4.188-26.59-9.306-26.59-9.306s13.22 1.861 28.3 6.049c10.95 3.043 16.58 5.021 18.65 6.232v-.547c-2.35-.395-8.01-2.7-18.65-8.012-13.68-6.824-23.32-13.804-23.32-13.804s12.43 4.188 26.12 11.012c5.78 2.884 9.86 5.102 12.6 6.762-2.73-1.875-6.9-5.297-12.92-10.794-11.03-10.082-18.03-19.233-18.03-19.233s10.88 6.98 21.92 17.061c4.75 4.336 8.03 7.554 10.14 9.862-1.81-2.353-4.63-7.007-8.74-14.825-6.68-12.718-9.95-23.576-9.95-23.576s7.62 9.772 14.15 22.49c3.76 7.335 5.82 12.039 6.68 14.767v-1.457c-.83-1.926-1.4-7.488-1.4-18.583 0-14.27 2.18-25.902 2.18-25.902s2.18 11.632 2.18 25.902c0 11.092-.57 16.655-1.4 18.582zm-1.56 4.542c-.23-.019-.53-.194-.91-.546.36.428.66.812.91 1.156v-.61zm0 2.943c-.38-.1-.87-.315-1.48-.66.59.396 1.08.75 1.48 1.062v-.402zm1.56-.029c.42-.325.95-.693 1.58-1.105-.65.387-1.17.641-1.58.774v.331zm-1.56 4.236c-.5.034-1.2-.001-2.14-.115.99.254 1.69.492 2.14.711v-.596zm1.56.349c.58-.27 1.51-.568 2.84-.891-1.27.19-2.2.264-2.84.24v.651zm-9.18 1.483h-29.07c4.51-.31 9.95-.465 15.7-.465 5.6 0 10.11.155 13.37.465zm16.64 0h29.07c-4.51-.31-9.95-.62-15.7-.465-5.75.155-10.11.31-13.37.465z" fill="url(#paint15_linear_487_37)"/></g><path d="M921.06 692.595a109.558 109.558 0 00-11.059-29.541 69.01 69.01 0 00-2.28-3.878c-5.814-9.694-12.997-18.363-21.319-25.891-1.026-1.026-2.166-1.939-3.306-2.851a110.343 110.343 0 00-29.984-17.793c-1.368-.57-2.736-1.026-4.105-1.483-10.944-3.878-22.801-6.045-35-6.273h-4.332c-12.313.228-24.056 2.395-35 6.273-1.368.457-2.736 1.027-4.105 1.483a110.323 110.323 0 00-29.983 17.793c-1.14.912-2.281 1.939-3.307 2.851-8.322 7.528-15.619 16.197-21.319 25.891-.798 1.255-1.482 2.624-2.28 3.878a109.592 109.592 0 00-11.059 29.541c-.342 1.483-.57 2.966-.912 4.448a110.798 110.798 0 00-1.71 19.504h223.568c0-6.615-.57-13.231-1.71-19.504-.228-1.482-.456-2.965-.798-4.448z" fill="url(#paint16_linear_487_37)"/><path opacity=".3" d="M809.676 604.771v111.776h4.332V604.771h-4.332z" fill="url(#paint17_linear_487_37)"/><path opacity=".3" d="M770.57 612.641l27.818 104.02h4.446l-28.273-105.503c-1.255.457-2.623.913-3.991 1.483z" fill="url(#paint18_linear_487_37)"/><path opacity=".3" d="M737.28 633.285l48.111 83.262h4.903l-49.708-86.113c-1.14.912-2.28 1.939-3.306 2.851z" fill="url(#paint19_linear_487_37)"/><path opacity=".3" d="M713.681 663.054l53.583 53.607h6.043l-57.46-57.485c-.684 1.255-1.482 2.624-2.166 3.878z" fill="url(#paint20_linear_487_37)"/><path opacity=".3" d="M701.71 697.043l33.86 19.504h8.665l-41.613-24.066c-.342 1.597-.57 3.08-.912 4.562z" fill="url(#paint21_linear_487_37)"/><path opacity=".3" d="M820.734 716.661h4.447l27.817-104.02c-1.368-.57-2.736-1.026-4.104-1.483l-28.16 105.503z" fill="url(#paint22_linear_487_37)"/><path opacity=".3" d="M833.274 716.661h5.017l48.111-83.262c-1.026-1.026-2.166-1.938-3.306-2.851l-49.822 86.113z" fill="url(#paint23_linear_487_37)"/><path d="M850.262 716.661h6.042l53.584-53.607a68.43 68.43 0 00-2.281-3.878l-57.345 57.485z" fill="url(#paint24_linear_487_37)" opacity=".3"/><path d="M879.447 716.661h8.665l33.86-19.504c-.228-1.482-.57-2.965-.912-4.448l-41.613 23.952z" fill="#084F15"/><path d="M1004.74 701.378c-1.48-6.616-3.87-13.003-7.067-18.82a49.858 49.858 0 01-1.368-2.509c-3.648-6.159-8.208-11.634-13.567-16.424-.684-.571-1.368-1.255-2.166-1.825-5.7-4.677-12.084-8.555-19.039-11.292-.798-.342-1.71-.684-2.622-.912-6.955-2.51-14.479-3.878-22.231-3.992h-2.737c-7.752.114-15.277 1.596-22.231 3.992-.912.342-1.71.57-2.622.912-6.955 2.737-13.339 6.615-19.039 11.292-.684.57-1.369 1.254-2.167 1.825-5.358 4.79-9.918 10.265-13.566 16.424-.456.798-.913 1.597-1.369 2.509a70.452 70.452 0 00-7.068 18.82c-.228.912-.342 1.938-.57 2.851-.684 3.992-1.14 8.212-1.14 12.432h142.049c0-4.22-.34-8.44-1.14-12.432.12-1.027-.11-1.939-.34-2.851z" fill="url(#paint25_linear_487_37)"/><path opacity=".3" d="M933.942 645.604v71.057h2.737v-71.057h-2.737z" fill="url(#paint26_linear_487_37)"/><path opacity=".3" d="M909.203 650.508l17.671 66.039h2.85l-17.899-67.065c-.912.456-1.824.684-2.622 1.026z" fill="url(#paint27_linear_487_37)"/><path opacity=".3" d="M887.998 663.739l30.554 52.922h3.192l-31.58-54.747c-.798.57-1.482 1.14-2.166 1.825z" fill="url(#paint28_linear_487_37)"/><path opacity=".3" d="M872.949 682.558l34.088 33.989h3.877l-36.483-36.498c-.456.912-1.026 1.711-1.482 2.509z" fill="url(#paint29_linear_487_37)"/><path opacity=".3" d="M865.425 704.229l21.547 12.432h5.472l-26.449-15.284c-.228.913-.456 1.825-.57 2.852z" fill="url(#paint30_linear_487_37)"/><path opacity=".3" d="M941.011 716.661h2.85l17.671-66.039c-.798-.342-1.71-.684-2.622-.912l-17.899 66.951z" fill="url(#paint31_linear_487_37)"/><path opacity=".3" d="M948.992 716.661h3.192l30.554-52.922c-.684-.571-1.368-1.255-2.166-1.825l-31.58 54.747z" fill="url(#paint32_linear_487_37)"/><path opacity=".3" d="M959.822 716.661h3.876l34.089-33.989a49.858 49.858 0 01-1.368-2.509l-36.597 36.498z" fill="url(#paint33_linear_487_37)"/><path opacity=".3" d="M978.292 716.661h5.472l21.546-12.432c-.11-.913-.34-1.939-.57-2.852l-26.448 15.284z" fill="url(#paint34_linear_487_37)"/><path d="M1290 709H-6v95.58h1296V709z" fill="url(#paint35_linear_487_37)"/><mask id="mask4_487_37" style="mask-type:alpha" maskUnits="userSpaceOnUse" x="-6" y="709" width="1296" height="96"><path d="M1290 709H-6v95.58h1296V709z" fill="url(#paint36_linear_487_37)"/></mask><g mask="url(#mask4_487_37)"><path opacity=".7" fill-rule="evenodd" clip-rule="evenodd" d="M544.791 747.025c-8.604 9.061-17.383 15.24-26.766 14.814-2.327-.106-4.196-.585-5.595-1.473-1.429-.908-2.3-2.201-2.676-3.767-.368-1.533-.253-3.286.184-5.162.438-1.884 1.216-3.955 2.239-6.155 3.746-8.058 11.001-18.29 18.026-28.197v-.001h.001c.613-.866 1.225-1.728 1.832-2.587 3.798-5.367 7.439-10.584 10.354-15.282 2.928-4.719 5.068-8.827 5.925-11.992.429-1.583.508-2.828.285-3.757-.21-.874-.696-1.516-1.58-1.95-.934-.459-2.364-.706-4.456-.587-2.08.119-4.727.595-8.031 1.496-6.507 1.774-13.756 5.867-21.592 11.708-7.827 5.834-16.181 13.367-24.898 21.958-12.288 12.11-25.246 26.269-38.425 40.67l-.001.001-.002.002c-5.53 6.043-11.098 12.128-16.673 18.122-18.831 20.248-37.721 39.45-55.273 52.27-17.481 12.769-33.987 19.47-47.885 13.994-6.871-2.706-10.331-6.595-10.743-11.503-.399-4.762 2.125-10.131 6.254-15.737 8.288-11.256 23.687-24.3 38.638-36.827l1.608-1.346.066-.056.03-.025c6.911-5.788 13.679-11.456 19.593-16.798 6.408-5.789 11.762-11.15 15.191-15.822 1.715-2.336 2.916-4.456 3.539-6.333.621-1.872.647-3.43.125-4.724-.521-1.29-1.654-2.482-3.686-3.488-2.04-1.01-4.925-1.8-8.816-2.299-12.373-1.586-28.247 2.146-45.927 9.4-17.65 7.243-36.975 17.942-56.199 30.142-38.447 24.4-76.394 54.741-99.585 75.235l-1.324-1.498c23.249-20.546 61.28-50.955 99.837-75.425 19.278-12.235 38.712-23.001 56.512-30.304 17.771-7.292 34.041-11.188 46.94-9.534 4.006.514 7.134 1.344 9.45 2.491 2.326 1.152 3.895 2.656 4.652 4.53.755 1.871.636 3.944-.081 6.104-.715 2.153-2.046 4.464-3.824 6.886-3.557 4.845-9.037 10.318-15.463 16.123-5.943 5.368-12.738 11.059-19.641 16.84l-.002.002-.023.019-1.688 1.414c-15.019 12.583-30.198 25.459-38.312 36.478-4.073 5.531-6.206 10.388-5.871 14.385.323 3.85 2.988 7.251 9.483 9.81 12.831 5.054 28.523-1.003 45.973-13.749 17.379-12.694 36.154-31.765 54.988-52.017 5.548-5.966 11.102-12.035 16.624-18.069 13.195-14.419 26.21-28.64 38.537-40.788 8.748-8.622 17.176-16.226 25.106-22.137 7.921-5.904 15.404-10.164 22.262-12.035 3.379-.921 6.174-1.433 8.442-1.562 2.256-.129 4.08.114 5.453.788 1.423.699 2.295 1.831 2.643 3.278.335 1.393.17 3.013-.299 4.747-.94 3.467-3.218 7.787-6.156 12.523-2.951 4.756-6.625 10.019-10.421 15.384l-1.674 2.362-.104.147-.022.032c-7.066 9.966-14.214 20.049-17.879 27.931-.989 2.127-1.708 4.062-2.104 5.765-.398 1.71-.456 3.124-.187 4.243.26 1.085.833 1.928 1.803 2.544 1 .635 2.485 1.067 4.613 1.164 8.437.384 16.668-5.182 25.226-14.194 6.943-7.311 13.936-16.707 21.283-26.58h.001l.004-.007.017-.022a1698.75 1698.75 0 015.072-6.792c9.214-12.251 19.042-24.633 29.943-33.951 10.906-9.323 22.976-15.655 36.669-15.655v2c-13.037 0-24.66 6.02-35.37 15.175-10.716 9.161-20.43 21.383-29.643 33.634-1.7 2.26-3.384 4.523-5.054 6.767l-.002.002v.001c-7.351 9.878-14.436 19.398-21.47 26.806zm385.327-53.304c-1.994-3.126-5.614-4.977-11.877-4.782-12.457.39-24.354 10.452-36.015 25.755-11.615 15.244-22.767 35.373-33.813 55.338l-.153.275c-10.972 19.831-21.846 39.484-32.914 53.793-5.561 7.19-11.212 13.087-16.998 16.984-5.798 3.905-11.788 5.84-17.975 4.987-6.102-.842-10.154-3.403-12.485-7.355-2.298-3.898-2.823-8.983-2.27-14.691 1.105-11.406 6.584-25.922 12.139-40.061.438-1.116.877-2.229 1.315-3.339l.027-.068v-.001c5.13-13.018 10.047-25.492 11.587-34.963.839-5.161.632-9.202-.883-11.92-1.453-2.606-4.257-4.233-9.293-4.233-4.953 0-9.771 2.188-14.56 6.173-4.794 3.988-9.491 9.722-14.176 16.673-7.852 11.652-15.565 26.56-23.585 42.064-1.557 3.008-3.125 6.039-4.707 9.073-9.717 18.623-19.986 37.34-31.501 51.403-11.501 14.046-24.413 23.654-39.451 23.654-7.429 0-12.29-1.934-14.905-5.659-2.584-3.68-2.746-8.802-1.566-14.625 1.187-5.857 3.78-12.659 7.015-19.909 2.74-6.141 5.962-12.651 9.217-19.226l.001-.001c.59-1.193 1.182-2.387 1.771-3.583 7.719-15.64 15.117-31.27 16.611-43.369.744-6.027-.003-11.001-2.732-14.649-2.719-3.636-7.568-6.17-15.511-6.964-25.577-2.558-51.526 8.633-73.653 23.806-22.109 15.16-40.26 34.2-50.196 47.089l-1.584-1.221c10.044-13.03 28.343-32.222 50.649-47.518 22.288-15.283 48.719-26.772 74.983-24.146 8.256.826 13.735 3.506 16.914 7.756 3.168 4.236 3.889 9.818 3.115 16.092-1.544 12.505-9.131 28.465-16.802 44.01-.592 1.2-1.185 2.397-1.777 3.592v.001c-3.256 6.577-6.457 13.045-9.18 19.146-3.22 7.217-5.739 13.856-6.881 19.491-1.149 5.669-.856 10.09 1.243 13.079 2.068 2.946 6.118 4.808 13.268 4.808 14.122 0 26.522-9.022 37.904-22.921 11.367-13.882 21.551-32.425 31.274-51.062 1.574-3.015 3.136-6.034 4.688-9.035l.001-.002c8.018-15.5 15.796-30.535 23.719-42.291 4.731-7.021 9.552-12.931 14.554-17.094 5.007-4.165 10.263-6.635 15.84-6.635 5.494 0 9.12 1.816 11.04 5.259 1.857 3.332 1.967 7.947 1.11 13.215-1.577 9.697-6.575 22.376-11.675 35.31v.001l-1.367 3.471c-5.583 14.211-10.937 28.45-12.009 39.522-.536 5.53.016 10.114 2.002 13.482 1.953 3.312 5.393 5.611 11.036 6.389 5.559.767 11.06-.943 16.583-4.664 5.535-3.727 11.034-9.437 16.534-16.548 10.974-14.188 21.788-33.734 32.805-53.644l.094-.17c11.025-19.927 22.25-40.197 33.973-55.581 11.677-15.325 24.08-26.121 37.543-26.542 6.697-.209 11.126 1.788 13.625 5.705 2.436 3.818 2.872 9.227 2.234 15.47-.642 6.277-2.396 13.604-4.556 21.411-1.081 3.909-2.268 7.951-3.474 12.054l-.055.185c-1.189 4.046-2.395 8.15-3.54 12.256-2.325 8.341-4.387 16.658-5.523 24.445-1.137 7.794-1.337 14.992.018 21.114 1.35 6.097 4.233 11.102 9.27 14.604 5.06 3.518 12.403 5.596 22.812 5.596v2c-10.651 0-18.444-2.124-23.953-5.953-5.531-3.845-8.646-9.332-10.081-15.815-1.43-6.459-1.199-13.929-.045-21.835 1.154-7.913 3.244-16.327 5.576-24.693 1.145-4.109 2.352-8.214 3.537-12.246l.006-.022.059-.2c1.207-4.105 2.389-8.132 3.466-12.023 2.155-7.792 3.87-14.982 4.493-21.082.628-6.136.127-10.965-1.93-14.19zm313.052 94.372c-1.87-6.234-5.79-13.049-11.01-20.132-5.22-7.092-11.77-14.506-18.95-21.94-11.96-12.389-25.73-24.883-38.06-36.079-2.46-2.236-4.87-4.42-7.19-6.54-6.99-6.379-13.22-12.183-18.02-17.127-4.85-4.981-8.12-8.974-9.33-11.745-.61-1.4-.57-2.202-.31-2.645.25-.435.93-.922 2.65-1.093 3.41-.339 9.67.691 19.61 3.53l.55-1.924c-9.91-2.831-16.52-3.978-20.36-3.596-1.9.19-3.44.788-4.19 2.089-.74 1.293-.46 2.877.22 4.438 1.37 3.152 4.91 7.386 9.72 12.34 4.85 4.991 11.13 10.831 18.11 17.209 2.33 2.129 4.74 4.319 7.21 6.558 12.33 11.197 26.04 23.638 37.95 35.974 7.15 7.4 13.64 14.743 18.78 21.737 5.16 7.003 8.93 13.604 10.7 19.52.9 3.006 1.43 5.42 1.63 7.312.19 1.912.04 3.184-.31 3.98-.31.72-.8 1.083-1.52 1.212-.8.144-1.94-.001-3.48-.524-3.05-1.043-7.19-3.419-12.23-6.778-5.03-3.345-10.88-7.609-17.37-12.37l-2.43-1.789c-12.43-9.137-26.94-19.803-42.09-29.088-16.13-9.893-33.05-18.267-49.02-21.542-7.9-1.621-13.45-2.304-17.01-2.113-1.76.094-3.18.409-4.15 1.058-.51.337-.9.773-1.15 1.317-.24.541-.29 1.121-.22 1.701.14 1.121.76 2.339 1.64 3.598.9 1.281 2.14 2.708 3.66 4.261 3.02 3.107 7.22 6.804 12.13 10.957 2.91 2.459 6.08 5.081 9.41 7.843v.004c7.95 6.59 16.86 13.975 25.57 21.848 12.36 11.172 24.24 23.256 32.27 35.301 2.01 3.011 3.33 5.416 4.06 7.289.74 1.913.79 3.08.54 3.739-.2.537-.69.971-1.89 1.126-1.23.159-2.99-.017-5.27-.546-4.55-1.054-10.84-3.421-18.46-6.675-7.6-3.249-16.45-7.355-26.12-11.862l-2.42-1.124c-18.78-8.755-40.39-18.829-61.56-26.924-22.07-8.437-43.77-14.769-61.37-15.178-7.018-.163-12.271.534-15.965 2.002-3.729 1.483-5.948 3.793-6.665 6.828-.699 2.96.089 6.388 1.832 10.029 1.752 3.661 4.532 7.67 8.022 11.86 13.946 16.741 39.716 36.974 59.166 50.482l1.14-1.642c-19.43-13.492-45.01-33.597-58.769-50.12-3.436-4.126-6.103-7.991-7.755-11.443-1.662-3.472-2.235-6.396-1.689-8.707.528-2.237 2.162-4.118 5.457-5.428 3.331-1.325 8.273-2.022 15.186-1.861 17.23.401 38.66 6.624 60.69 15.046 21.11 8.069 42.66 18.116 61.46 26.878l2.39 1.115c9.67 4.504 18.55 8.624 26.19 11.888 7.62 3.257 14.05 5.687 18.79 6.784 2.35.547 4.39.786 5.97.582 1.61-.208 2.96-.915 3.52-2.413.51-1.375.23-3.137-.56-5.162-.8-2.066-2.21-4.609-4.26-7.673-8.17-12.255-20.19-24.471-32.58-35.675-8.75-7.902-17.71-15.335-25.68-21.934v-.005c-3.33-2.754-6.47-5.363-9.36-7.8-4.91-4.15-9.04-7.793-11.99-10.825-1.48-1.516-2.64-2.857-3.45-4.014-.83-1.179-1.22-2.068-1.3-2.694-.03-.293.01-.496.07-.644.07-.146.19-.305.43-.465.52-.346 1.5-.636 3.15-.725 3.28-.176 8.61.457 16.5 2.076 15.62 3.205 32.31 11.436 48.38 21.287 15.07 9.239 29.51 19.859 41.96 29.003.81.601 1.62 1.194 2.42 1.781 6.48 4.757 12.37 9.048 17.44 12.423 5.05 3.362 9.37 5.871 12.7 7.006 1.65.565 3.18.831 4.47.6 1.38-.246 2.42-1.044 3.01-2.38.55-1.262.67-2.941.45-4.986-.21-2.065-.77-4.612-1.69-7.681z" fill="url(#paint37_linear_487_37)"/><path opacity=".1" d="M382.158 742.448c-133.23 0-155.6 44.253-390.588 44.253v69.719H1290V707.38c-285.09 0-248.39 62.204-493.968 62.204-245.572 0-298.497-27.136-413.874-27.136z" fill="url(#paint38_linear_487_37)"/></g><path opacity=".2" d="M469.507 414.869c114.082-114.082 114.122-299.085.091-413.216-114.032-114.131-298.954-114.172-413.035-.09-114.082 114.081-114.122 299.084-.09 413.215 114.031 114.132 298.953 114.172 413.034.091z" fill="url(#paint39_linear_487_37)"/><path d="M73.438 433.741h5.544v366.606h-5.544V433.741z" fill="#0C5E59"/><path d="M37.608 402.141c13.533 0 26.293 9.698 35.187 18.621-5.994-8.535-14.307-18.815-20.687-20.949-10.827-3.491-19.914-1.745-19.914-1.745s10.247-14.354 25.327-7.565c6.767 2.91 12.373 12.414 16.433 21.53-2.32-8.534-3.866-18.621-2.513-27.931 3.674-23.276 29.774-25.216 29.774-25.216s-14.5 20.173-17.207 44.031c-.387 3.103-.58 6.207-.773 9.116 2.32-13.771 7.733-30.259 20.88-38.987 32.673-21.725 53.167 16.681 53.167 16.681s-18.754-11.638-43.307.776c-19.334 9.698-27.647 30.841-30.354 39.181 3.287-6.4 16.627-30.259 38.281-33.944 32.48-5.431 40.793 35.884 40.793 35.884s-18.56-14.935-41.567-13.966c-17.787.776-30.74 8.147-37.12 13.966 3.287-.97 10.827-2.715 19.527-2.715 28.807-.388 34.8 38.211 34.8 38.211l-54.714-33.556c2.32 4.461 7.154 13.772 9.86 20.366 3.674 8.923 1.354 28.708 1.354 28.708s-8.894-15.13-11.407-25.022c-2.513-9.505-1.933-19.397-1.547-24.052l-37.12 40.151s-9.087-24.44 18.753-36.272c3.674-1.552 6.96-2.909 9.474-3.879-6.767.97-14.887 3.685-23.2 9.116-16.24 10.475-26.487 24.828-26.487 24.828s-10.054-29.677 14.693-41.315c8.12-3.879 17.4-3.297 25.327-1.552-5.993-3.491-13.727-6.013-23.2-4.849-22.427 2.716-28.614 18.815-28.614 18.815s-6.38-36.66 26.1-36.466z" fill="url(#paint40_linear_487_37)"/><path d="M231.375 776.59a114.71 114.71 0 00-11.575-30.919 72.043 72.043 0 00-2.386-4.059c-6.086-10.147-13.604-19.22-22.315-27.099-1.074-1.074-2.267-2.03-3.46-2.985a115.53 115.53 0 00-31.383-18.623c-1.432-.597-2.864-1.074-4.296-1.552-11.455-4.058-23.865-6.327-36.633-6.565h-4.535c-12.887.238-25.177 2.507-36.633 6.565-1.432.478-2.864 1.075-4.296 1.552a115.516 115.516 0 00-31.383 18.623c-1.193.955-2.386 2.03-3.46 2.985-8.711 7.879-16.348 16.952-22.314 27.099-.835 1.313-1.551 2.746-2.387 4.059A114.682 114.682 0 002.745 776.59c-.358 1.552-.597 3.104-.955 4.656A115.949 115.949 0 000 801.66h234c0-6.924-.597-13.848-1.79-20.414-.239-1.552-.477-3.104-.835-4.656z" fill="url(#paint41_linear_487_37)"/><path fill-rule="evenodd" clip-rule="evenodd" d="M114.793 684.668V801.66h4.534V684.668h-4.534zm-40.93 8.237l29.116 108.874h4.654L78.04 691.353c-.344.126-.696.251-1.055.378-1.009.359-2.065.734-3.121 1.174zM89.377 801.66L39.02 714.513l.322-.287c.989-.88 2.064-1.837 3.139-2.698l52.026 90.132h-5.131zM14.32 745.671l56.084 56.108h6.324l-60.14-60.167c-.358.657-.746 1.343-1.134 2.029-.388.687-.776 1.373-1.134 2.03zm22.91 55.989L1.79 781.246a64.86 64.86 0 00.524-2.59c.134-.712.27-1.437.43-2.185L46.3 801.66h-9.07zm89.137.119h4.654l29.116-108.874c-1.432-.597-2.864-1.074-4.296-1.552l-29.474 110.426zm18.377 0h-5.251l52.146-90.131c1.193.955 2.387 1.91 3.461 2.984l-50.356 87.147zm12.529 0h6.324l56.084-56.108a71.466 71.466 0 00-2.387-4.059l-60.021 60.167zm39.617 0h-9.069l43.554-25.07c.358 1.552.716 3.104.955 4.656l-35.44 20.414z" fill="url(#paint42_linear_487_37)"/><path d="M65.373 686.941c-10.97 0-15.083-9.602-15.083-22.976 0-13.375-3.77-24.349-18.51-25.034-19.196-.686-17.482 17.832-17.482 40.466 0 28.806-10.284 10.288-24.68 26.406-12.34 13.717 3.427 38.066 8.226 45.267h62.044c2.057-3.772 7.199-13.031 13.026-24.348 13.026-24.006 3.428-39.781-7.541-39.781z" fill="url(#paint43_linear_487_37)"/><path opacity=".2" fill-rule="evenodd" clip-rule="evenodd" d="M35.893 691.4h-3.085v43.007L19.85 717.121l-2.468 1.852 15.427 20.578v11.519h3.085v-32.494l13.072-16.22-2.401-1.938-10.671 13.241V691.4z" fill="#fff"/><path d="M78.056 751.413h-91.867v51.098h91.867v-51.098z" fill="#fff"/><path d="M1285 0H0v800h1185c55.23 0 100-44.772 100-100V0z" fill="url(#paint44_linear_487_37)"/></g><path opacity=".56" d="M1383.26 559.321c112.86-112.91 112.86-295.972 0-408.881-112.86-112.91-295.85-112.909-408.706 0-112.86 112.909-112.86 295.971 0 408.88 112.856 112.91 295.846 112.91 408.706.001z" fill="url(#paint45_linear_487_37)"/><path opacity=".2" d="M1035.36 751.553c82.54-82.576 82.54-216.459 0-299.035-82.543-82.577-216.367-82.577-298.908 0-82.54 82.576-82.54 216.459 0 299.035 82.541 82.576 216.365 82.577 298.908 0z" fill="url(#paint46_linear_487_37)"/><path d="M625.272 820.483a75.602 75.602 0 00-7.617-20.371 47.078 47.078 0 00-1.571-2.674 78.435 78.435 0 00-14.685-17.854c-.707-.708-1.492-1.337-2.278-1.966a75.991 75.991 0 00-20.653-12.27c-.943-.393-1.885-.708-2.828-1.022-7.539-2.674-15.706-4.169-24.109-4.326h-2.984c-8.481.157-16.57 1.652-24.109 4.326-.942.314-1.885.708-2.827 1.022a76.012 76.012 0 00-20.654 12.27c-.785.629-1.57 1.337-2.277 1.966-5.733 5.191-10.759 11.169-14.686 17.854-.549.865-1.021 1.809-1.57 2.674a75.605 75.605 0 00-7.618 20.371c-.235 1.023-.392 2.045-.628 3.068A76.492 76.492 0 00473 837h154c0-4.562-.393-9.124-1.178-13.449-.157-1.023-.314-2.045-.55-3.068z" fill="#F4F6D5"/><path d="M779.307 843.259a117.82 117.82 0 00-11.871-31.746 73.446 73.446 0 00-2.448-4.168c-6.241-10.419-13.952-19.734-22.886-27.824-1.102-1.103-2.325-2.084-3.549-3.064a118.409 118.409 0 00-32.188-19.122c-1.469-.613-2.937-1.103-4.406-1.593-11.749-4.168-24.477-6.497-37.572-6.742h-4.651c-13.218.245-25.824 2.574-37.573 6.742-1.468.49-2.937 1.103-4.406 1.593a118.403 118.403 0 00-32.187 19.122c-1.224.98-2.448 2.083-3.55 3.064-8.934 8.09-16.767 17.405-22.886 27.824-.857 1.349-1.591 2.819-2.448 4.168a117.853 117.853 0 00-11.871 31.746c-.367 1.594-.612 3.187-.979 4.781A119.165 119.165 0 00542 869h240c0-7.109-.612-14.219-1.836-20.96-.245-1.594-.489-3.187-.857-4.781z" fill="#fff"/><defs><linearGradient id="paint0_linear_487_37" x1="892.272" y1="1119.08" x2="-93.489" y2="306.262" gradientUnits="userSpaceOnUse"><stop stop-color="#FFEDBA"/><stop offset="1" stop-color="#EE4D47"/></linearGradient><linearGradient id="paint1_linear_487_37" x1="793" y1="990" x2="-63.525" y2="258.836" gradientUnits="userSpaceOnUse"><stop stop-color="#FFEDBA"/><stop offset="1" stop-color="#EE4D47"/></linearGradient><linearGradient id="paint2_linear_487_37" x1="865" y1="-212" x2="865" y2="892" gradientUnits="userSpaceOnUse"><stop stop-color="#F4A984"/><stop offset="1" stop-color="#F4A984" stop-opacity="0"/></linearGradient><linearGradient id="paint3_linear_487_37" x1="1098.95" y1="447.562" x2="1098.95" y2="727.313" gradientUnits="userSpaceOnUse"><stop offset=".241" stop-color="#2CA77F"/><stop offset="1" stop-color="#1B8877"/></linearGradient><linearGradient id="paint4_linear_487_37" x1="1098.95" y1="447.562" x2="1098.95" y2="727.313" gradientUnits="userSpaceOnUse"><stop offset=".241" stop-color="#2CA77F"/><stop offset="1" stop-color="#1B8877"/></linearGradient><linearGradient id="paint5_linear_487_37" x1="1098.95" y1="447.562" x2="1098.95" y2="727.313" gradientUnits="userSpaceOnUse"><stop offset=".241" stop-color="#2CA77F"/><stop offset="1" stop-color="#1B8877"/></linearGradient><linearGradient id="paint6_linear_487_37" x1="1105.84" y1="458.726" x2="1105.84" y2="712.866" gradientUnits="userSpaceOnUse"><stop stop-color="#fff"/><stop offset="1" stop-color="#fff" stop-opacity="0"/></linearGradient><linearGradient id="paint7_linear_487_37" x1="1216.82" y1="527.679" x2="1216.82" y2="721.403" gradientUnits="userSpaceOnUse"><stop offset=".422" stop-color="#2CA77F"/><stop offset="1" stop-color="#1B8877"/></linearGradient><linearGradient id="paint8_linear_487_37" x1="1216.82" y1="527.679" x2="1216.82" y2="721.403" gradientUnits="userSpaceOnUse"><stop offset=".422" stop-color="#2CA77F"/><stop offset="1" stop-color="#1B8877"/></linearGradient><linearGradient id="paint9_linear_487_37" x1="1215.84" y1="557.23" x2="1215.84" y2="715.493" gradientUnits="userSpaceOnUse"><stop stop-color="#fff"/><stop offset="1" stop-color="#fff" stop-opacity="0"/></linearGradient><linearGradient id="paint10_linear_487_37" x1="910.478" y1="476.457" x2="910.478" y2="768.803" gradientUnits="userSpaceOnUse"><stop offset=".422" stop-color="#2CA77F"/><stop offset="1" stop-color="#1B8877"/></linearGradient><linearGradient id="paint11_linear_487_37" x1="910.478" y1="476.457" x2="910.478" y2="768.803" gradientUnits="userSpaceOnUse"><stop offset=".422" stop-color="#2CA77F"/><stop offset="1" stop-color="#1B8877"/></linearGradient><linearGradient id="paint12_linear_487_37" x1="902.269" y1="534.897" x2="902.269" y2="742.254" gradientUnits="userSpaceOnUse"><stop stop-color="#fff"/><stop offset="1" stop-color="#fff" stop-opacity="0"/></linearGradient><linearGradient id="paint13_linear_487_37" x1="1084.16" y1="531.011" x2="1084.16" y2="590.03" gradientUnits="userSpaceOnUse"><stop stop-color="#D3D86C"/><stop offset="1" stop-color="#82A637"/></linearGradient><linearGradient id="paint14_linear_487_37" x1="990.594" y1="403.877" x2="990.594" y2="511.918" gradientUnits="userSpaceOnUse"><stop stop-color="#D3D86C"/><stop offset="1" stop-color="#82A637"/></linearGradient><linearGradient id="paint15_linear_487_37" x1="1251.88" y1="653.604" x2="1251.88" y2="671.714" gradientUnits="userSpaceOnUse"><stop stop-color="#D3D86C"/><stop offset="1" stop-color="#82A637"/></linearGradient><linearGradient id="paint16_linear_487_37" x1="811.784" y1="568.394" x2="811.784" y2="716.547" gradientUnits="userSpaceOnUse"><stop stop-color="#D3D86C"/><stop offset="1" stop-color="#82A637"/></linearGradient><linearGradient id="paint17_linear_487_37" x1="811.842" y1="604.771" x2="811.842" y2="716.547" gradientUnits="userSpaceOnUse"><stop stop-color="#084F15" stop-opacity="0"/><stop offset="1" stop-color="#084F15"/></linearGradient><linearGradient id="paint18_linear_487_37" x1="786.702" y1="611.158" x2="786.702" y2="716.661" gradientUnits="userSpaceOnUse"><stop stop-color="#084F15" stop-opacity="0"/><stop offset="1" stop-color="#084F15"/></linearGradient><linearGradient id="paint19_linear_487_37" x1="763.787" y1="630.434" x2="763.787" y2="716.547" gradientUnits="userSpaceOnUse"><stop stop-color="#084F15" stop-opacity="0"/><stop offset="1" stop-color="#084F15"/></linearGradient><linearGradient id="paint20_linear_487_37" x1="743.494" y1="659.176" x2="743.494" y2="716.661" gradientUnits="userSpaceOnUse"><stop stop-color="#084F15" stop-opacity="0"/><stop offset="1" stop-color="#084F15"/></linearGradient><linearGradient id="paint21_linear_487_37" x1="722.972" y1="692.481" x2="722.972" y2="716.547" gradientUnits="userSpaceOnUse"><stop stop-color="#084F15" stop-opacity="0"/><stop offset="1" stop-color="#084F15"/></linearGradient><linearGradient id="paint22_linear_487_37" x1="836.866" y1="611.158" x2="836.866" y2="716.661" gradientUnits="userSpaceOnUse"><stop stop-color="#084F15" stop-opacity="0"/><stop offset="1" stop-color="#084F15"/></linearGradient><linearGradient id="paint23_linear_487_37" x1="859.838" y1="630.548" x2="859.838" y2="716.661" gradientUnits="userSpaceOnUse"><stop stop-color="#084F15" stop-opacity="0"/><stop offset="1" stop-color="#084F15"/></linearGradient><linearGradient id="paint24_linear_487_37" x1="880.075" y1="659.176" x2="880.075" y2="716.661" gradientUnits="userSpaceOnUse"><stop stop-color="#084F15" stop-opacity="0"/><stop offset="1" stop-color="#084F15"/></linearGradient><linearGradient id="paint25_linear_487_37" x1="935.197" y1="622.382" x2="935.197" y2="716.661" gradientUnits="userSpaceOnUse"><stop stop-color="#D3D86C"/><stop offset="1" stop-color="#82A637"/></linearGradient><linearGradient id="paint26_linear_487_37" x1="935.31" y1="645.604" x2="935.31" y2="716.661" gradientUnits="userSpaceOnUse"><stop stop-color="#084F15" stop-opacity="0"/><stop offset="1" stop-color="#084F15"/></linearGradient><linearGradient id="paint27_linear_487_37" x1="919.464" y1="649.482" x2="919.464" y2="716.547" gradientUnits="userSpaceOnUse"><stop stop-color="#084F15" stop-opacity="0"/><stop offset="1" stop-color="#084F15"/></linearGradient><linearGradient id="paint28_linear_487_37" x1="904.871" y1="661.914" x2="904.871" y2="716.661" gradientUnits="userSpaceOnUse"><stop stop-color="#084F15" stop-opacity="0"/><stop offset="1" stop-color="#084F15"/></linearGradient><linearGradient id="paint29_linear_487_37" x1="891.931" y1="680.049" x2="891.931" y2="716.547" gradientUnits="userSpaceOnUse"><stop stop-color="#084F15" stop-opacity="0"/><stop offset="1" stop-color="#084F15"/></linearGradient><linearGradient id="paint30_linear_487_37" x1="878.935" y1="701.377" x2="878.935" y2="716.661" gradientUnits="userSpaceOnUse"><stop stop-color="#084F15" stop-opacity="0"/><stop offset="1" stop-color="#084F15"/></linearGradient><linearGradient id="paint31_linear_487_37" x1="951.271" y1="649.71" x2="951.271" y2="716.661" gradientUnits="userSpaceOnUse"><stop stop-color="#084F15" stop-opacity="0"/><stop offset="1" stop-color="#084F15"/></linearGradient><linearGradient id="paint32_linear_487_37" x1="965.865" y1="661.914" x2="965.865" y2="716.661" gradientUnits="userSpaceOnUse"><stop stop-color="#084F15" stop-opacity="0"/><stop offset="1" stop-color="#084F15"/></linearGradient><linearGradient id="paint33_linear_487_37" x1="978.804" y1="680.163" x2="978.804" y2="716.661" gradientUnits="userSpaceOnUse"><stop stop-color="#084F15" stop-opacity="0"/><stop offset="1" stop-color="#084F15"/></linearGradient><linearGradient id="paint34_linear_487_37" x1="991.802" y1="701.377" x2="991.802" y2="716.661" gradientUnits="userSpaceOnUse"><stop stop-color="#084F15" stop-opacity="0"/><stop offset="1" stop-color="#084F15"/></linearGradient><linearGradient id="paint35_linear_487_37" x1="319.869" y1="428.786" x2="319.869" y2="897.717" gradientUnits="userSpaceOnUse"><stop offset=".278" stop-color="#EEEF99"/><stop offset=".77" stop-color="#B9D079"/></linearGradient><linearGradient id="paint36_linear_487_37" x1="319.869" y1="428.786" x2="319.869" y2="897.717" gradientUnits="userSpaceOnUse"><stop offset=".278" stop-color="#EEEF99"/><stop offset=".77" stop-color="#B9D079"/></linearGradient><linearGradient id="paint37_linear_487_37" x1="716.755" y1="713.737" x2="716.755" y2="926.053" gradientUnits="userSpaceOnUse"><stop stop-color="#fff"/><stop offset="1" stop-color="#fff" stop-opacity="0"/></linearGradient><linearGradient id="paint38_linear_487_37" x1="640.785" y1="650.774" x2="640.785" y2="860.992" gradientUnits="userSpaceOnUse"><stop offset=".164" stop-color="#82A637"/><stop offset=".891" stop-color="#1B8877"/></linearGradient><linearGradient id="paint39_linear_487_37" x1="56.584" y1="-96.468" x2="56.662" y2="259.265" gradientUnits="userSpaceOnUse"><stop stop-color="#fff"/><stop offset="1" stop-color="#fff" stop-opacity="0"/></linearGradient><linearGradient id="paint40_linear_487_37" x1="86.848" y1="318.444" x2="86.848" y2="482.638" gradientUnits="userSpaceOnUse"><stop stop-color="#D3D86C"/><stop offset="1" stop-color="#82A637"/></linearGradient><linearGradient id="paint41_linear_487_37" x1="117" y1="646.593" x2="117" y2="801.66" gradientUnits="userSpaceOnUse"><stop stop-color="#D3D86C"/><stop offset="1" stop-color="#82A637"/></linearGradient><linearGradient id="paint42_linear_487_37" x1="210.075" y1="684.397" x2="210.075" y2="955.894" gradientUnits="userSpaceOnUse"><stop stop-color="#084F15" stop-opacity="0"/><stop offset="1" stop-color="#084F15"/></linearGradient><linearGradient id="paint43_linear_487_37" x1="32.095" y1="638.912" x2="32.095" y2="773.859" gradientUnits="userSpaceOnUse"><stop offset=".422" stop-color="#2CA77F"/><stop offset="1" stop-color="#1B8877"/></linearGradient><linearGradient id="paint44_linear_487_37" x1="892.272" y1="464" x2="892.272" y2="-228" gradientUnits="userSpaceOnUse"><stop stop-color="#FFEDBA" stop-opacity="0"/><stop offset="1" stop-color="#EB2A24"/></linearGradient><linearGradient id="paint45_linear_487_37" x1="974.554" y1="53.438" x2="974.708" y2="405.438" gradientUnits="userSpaceOnUse"><stop stop-color="#fff"/><stop offset="1" stop-color="#fff" stop-opacity="0"/></linearGradient><linearGradient id="paint46_linear_487_37" x1="736.452" y1="381.575" x2="736.565" y2="639.011" gradientUnits="userSpaceOnUse"><stop stop-color="#fff"/><stop offset="1" stop-color="#fff" stop-opacity="0"/></linearGradient><clipPath id="clip0_487_37"><path fill="#fff" transform="translate(1188.92 613.706)" d="M0 0h126.085v112.294H0z"/></clipPath></defs></svg>