<svg width="1400" height="660" fill="none" xmlns="http://www.w3.org/2000/svg"><path d="M1300 0H0v660h1400V100c0-55.228-44.77-100-100-100z" fill="#0F264C"/><mask id="mask0_521_8" style="mask-type:alpha" maskUnits="userSpaceOnUse" x="0" y="0" width="1400" height="660"><path d="M1300 0H0v660h1400V100c0-55.228-44.77-100-100-100z" fill="#0F264C"/></mask><g mask="url(#mask0_521_8)"><path opacity=".2" d="M-216 316.609c49.001-63.722 178.788-187.979 305.927-175.234C248.85 157.305-53.103 456 89.927 456 232.958 456 300.5 89.6 403.8 89.6c103.3 0-115.219 270.818 0 286.748C519.019 392.278 614.373-5.982 741.512-9.964 868.65-13.947 610.4 316.609 817 316.609" stroke="url(#paint0_linear_521_8)" stroke-width="2"/></g><defs><linearGradient id="paint0_linear_521_8" x1="300.5" y1="100.318" x2="300.5" y2="558.71" gradientUnits="userSpaceOnUse"><stop stop-color="#F37753"/><stop offset="1" stop-color="#fff" stop-opacity="0"/></linearGradient></defs></svg>