<svg width="721" height="679" fill="none" xmlns="http://www.w3.org/2000/svg"><path d="M334 141.051c-83.872-57.27-217.326 7.636-208 144.183 15.902 232.818 178.136 259.862 319.999 232.818 185.636-35.388 228.465-247.755 57.055-232.818C365.493 297.221 438.84 212.639 334 141.051z" fill="#FCDDD4"/><mask id="mask0_432_34" style="mask-type:alpha" maskUnits="userSpaceOnUse" x="125" y="120" width="487" height="407"><path d="M333.999 141.052c-83.872-57.27-217.326 7.635-208 144.182 15.902 232.818 178.136 259.862 319.999 232.818 185.636-35.388 228.465-247.754 57.055-232.818-137.561 11.987-64.214-72.594-169.054-144.182z" fill="#FCDDD4"/></mask><g mask="url(#mask0_432_34)"><path opacity=".7" d="M101.071 156.138c27.631-12.132 92.808-29.613 132.468-2.489 49.576 33.906-103.789 77.74-56.592 103.537 47.197 25.797 135.389-82.595 169.475-63.964 34.087 18.632-86.732 68.339-51.578 94.363 35.154 26.023 138.255-87.837 180.924-66.217 42.668 21.62-102.005 83.821-33.833 121.084" stroke="url(#paint0_linear_432_34)" stroke-width="2"/><path d="M271 545.051c0-27.614 22.386-50 50-50h267v110H271v-60z" fill="#F58A6B"/></g><defs><linearGradient id="paint0_linear_432_34" x1="310.408" y1="178.118" x2="227.956" y2="328.965" gradientUnits="userSpaceOnUse"><stop stop-color="#F37753"/><stop offset="1" stop-color="#fff" stop-opacity="0"/></linearGradient></defs></svg>