<svg width="170" height="41" fill="none" xmlns="http://www.w3.org/2000/svg"><path d="M64.55 33.535v-.26l1.071-.258c.714-.155 1.07-.586 1.07-1.293V16.983h-2.219c-.644 0-1.105.172-1.383.517-.279.328-.575.785-.888 1.37l-.94 1.811H61l.13-4.216h15.065l.104 4.216h-.26l-.94-1.81c-.297-.586-.584-1.043-.862-1.371-.279-.345-.74-.517-1.384-.517h-2.22v14.741c0 .707.358 1.138 1.071 1.293l1.07.259v.258h-8.223zm12.87 0v-.26l.549-.18c.348-.12.574-.276.679-.466.104-.207.156-.491.156-.853V18.25c0-.345-.052-.612-.156-.802-.087-.207-.296-.37-.627-.491l-.6-.233v-.259h7.466c2.054 0 3.63.388 4.726 1.164 1.097.759 1.645 1.82 1.645 3.181 0 .759-.287 1.518-.862 2.276-.574.759-1.48 1.345-2.715 1.759l3.629 7.138c.157.293.33.534.522.724.209.172.479.328.81.465l.339.13v.233h-4.673l-3.864-8.147h-1.776v6.388c0 .327.052.595.157.802.104.206.322.362.653.465l.626.233v.258h-6.683zm5.248-8.664h1.253c1.254 0 2.159-.328 2.716-.983.557-.673.835-1.664.835-2.974 0-1.328-.26-2.31-.783-2.949-.522-.655-1.401-.982-2.637-.982h-1.384v7.888zm11.036 8.664v-.26l.653-.232c.348-.138.618-.302.809-.491.192-.207.348-.492.47-.854l5.378-15.284h2.219l5.3 15.388c.14.379.296.672.47.879.174.19.444.354.81.491l.313.104v.258h-6.632v-.258l.392-.13c.366-.137.583-.327.653-.568.087-.259.078-.56-.026-.906l-1.227-3.724H97.49l-1.253 3.647c-.122.38-.166.68-.131.905.052.224.261.405.627.543l.574.233v.258h-3.603zm3.968-6.104h5.457l-2.637-8.043-2.82 8.043zm13.276 6.104v-.26l.47-.154c.348-.121.583-.285.705-.492.122-.207.182-.482.182-.827.018-1.035.027-2.078.027-3.13v-7.293c0-1.051-.009-2.095-.027-3.129 0-.345-.052-.62-.156-.828-.087-.207-.296-.37-.627-.491l-.574-.207v-.259h12.636l.183 4.294h-.261l-1.488-2.716a2.572 2.572 0 00-.601-.776c-.226-.19-.539-.284-.94-.284h-4.203a255.317 255.317 0 00-.026 3.75v3.802h2.715c.4 0 .696-.087.888-.26.191-.172.374-.422.548-.75l.548-.982h.261v4.526h-.261l-.574-.983a3.388 3.388 0 00-.548-.75c-.175-.19-.462-.284-.862-.284h-2.715v3.465c0 1.086.008 2.155.026 3.207 0 .673.331 1.112.992 1.32l.783.232v.258h-7.101zm13.87 0v-.26l.522-.206c.348-.12.574-.285.679-.491.121-.207.182-.483.182-.828v-13.5c0-.345-.052-.62-.156-.828-.105-.207-.34-.37-.705-.491l-.522-.207v-.259h6.709v.26l-.522.206c-.348.12-.583.284-.705.491-.104.207-.156.483-.156.828v13.5c0 .345.052.62.156.828.122.19.357.353.705.491l.522.207v.258h-6.709zm16.4.465c-1.688 0-3.22-.336-4.595-1.009-1.357-.69-2.437-1.706-3.237-3.051-.801-1.345-1.201-2.992-1.201-4.94 0-1.483.243-2.785.731-3.905.487-1.12 1.149-2.06 1.984-2.82a8.572 8.572 0 012.924-1.706 10.861 10.861 0 013.525-.569c.992 0 1.906.112 2.741.336a10.76 10.76 0 012.35.931l.104 3.181h-.261l-1.305-2.069a5.495 5.495 0 00-.575-.879 1.959 1.959 0 00-.783-.62 3.47 3.47 0 00-.783-.26 3.58 3.58 0 00-.94-.103c-1.01 0-1.932.268-2.768.802-.818.534-1.479 1.422-1.984 2.664-.487 1.224-.731 2.905-.731 5.043 0 2.12.235 3.802.705 5.043.47 1.224 1.105 2.103 1.906 2.638a5.025 5.025 0 002.741.776c.557 0 1.001-.035 1.332-.104.331-.086.661-.207.992-.362.331-.138.583-.336.757-.595a7 7 0 00.47-.879l1.149-2.534h.261l-.078 3.698c-.731.38-1.55.69-2.455.93-.905.242-1.897.363-2.976.363zm14.769 0a8.556 8.556 0 01-3.081-.569 8.055 8.055 0 01-2.637-1.681c-.766-.759-1.375-1.698-1.827-2.819-.453-1.12-.679-2.431-.679-3.931 0-1.483.226-2.785.679-3.905.452-1.12 1.07-2.052 1.853-2.793a7.869 7.869 0 012.637-1.707 8.16 8.16 0 013.055-.595c1.062 0 2.08.19 3.054.569a7.227 7.227 0 012.637 1.681c.784.741 1.401 1.681 1.854 2.819.453 1.12.679 2.431.679 3.931 0 1.465-.226 2.767-.679 3.905-.453 1.12-1.07 2.06-1.854 2.82a8.044 8.044 0 01-2.637 1.706 8.342 8.342 0 01-3.054.569zm0-.543c.957 0 1.732-.25 2.323-.75.592-.517 1.019-1.388 1.28-2.612.278-1.242.417-2.94.417-5.095 0-2.172-.139-3.87-.417-5.095-.261-1.241-.688-2.112-1.28-2.612-.591-.517-1.366-.776-2.323-.776-.94 0-1.706.259-2.298.776-.591.5-1.027 1.37-1.305 2.612-.261 1.224-.392 2.923-.392 5.095 0 2.155.131 3.853.392 5.095.278 1.224.714 2.095 1.305 2.612.592.5 1.358.75 2.298.75zm11.768.465a2.178 2.178 0 01-1.593-.646 2.107 2.107 0 01-.653-1.552c0-.603.218-1.13.653-1.577a2.135 2.135 0 011.593-.673c.626 0 1.157.224 1.592.673.435.448.653.974.653 1.577 0 .604-.218 1.12-.653 1.552a2.177 2.177 0 01-1.592.646z" fill="#fff"/><path opacity=".4" d="M0 14h13V0L0 14z" fill="#fff"/><path d="M38 14H13v27l25-27z" fill="#fff"/></svg>