<svg width="365" height="507" fill="none" xmlns="http://www.w3.org/2000/svg"><path fill-rule="evenodd" clip-rule="evenodd" d="M256.973 120.912c-.227 5.689-.886 10.731-1.567 15.944l-.112.854c-.719 5.518-1.918 11.035-3.117 16.553l-.001.005c-2.399 11.038-5.517 21.837-9.835 32.636l-1.679 4.079-.48.96-.239.48c0 .099-.041.157-.09.226-.068.096-.15.213-.15.494-.48 1.2-1.199 2.399-2.399 3.599-.959 1.2-2.398 2.16-3.837 3.119l-.001.001c-1.439.72-3.118 1.2-4.557 1.44-2.878.24-5.277-.24-7.196-.72-3.838-1.2-6.476-2.88-9.115-4.8-2.638-1.679-4.796-3.598-6.955-5.518l-.001-.001c-8.47-7.767-15.324-15.997-21.695-24.914-4.792-1.704-8.768-5.802-8.768-5.802l5.475-17.146-5.475 16.906-12.233-7.439 3.598-14.638 14.152 5.039v.001l9.594 15.117-.055 1.924.296-.244c1.919 1.8 3.897 3.6 5.876 5.399 1.979 1.8 3.958 3.6 5.877 5.4 4.077 3.599 8.154 6.718 12.232 9.837l.001.001c.626.418 1.231.835 1.828 1.246 1.463 1.009 2.875 1.982 4.409 2.834 1.679 1.05 3.543 1.733 4.947 2.209l.33-.769 1.439-3.6c3.358-9.599 5.996-19.677 7.915-29.996.516-2.707.962-5.484 1.413-8.292.389-2.42.782-4.863 1.226-7.306.719-5.039 1.439-10.559 1.679-15.358l17.27.24zm-30.315 65.366c.411.056.522-.094.332-.094-.066 0-.187.036-.332.094z" fill="url(#paint0_linear_480_658)"/><path d="M248.202 98.764c-7.196 1.92-12.473 31.916-12.473 31.916l20.148 13.678s19.189-30.236 13.673-38.395c-5.997-8.399-10.794-10.079-21.348-7.199z" fill="#FFEDBA"/><path opacity=".3" d="M248.682 105.483l-5.517 30.236 11.274 7.679-5.757-37.915z" fill="#ED6B57"/><path d="M290.045 478.756h-23.704l-1.281-40.193h23.383l1.602 40.193z" fill="#FFC3BD"/><path d="M266.088 476.583h23.943c.866 0 1.443.595 1.731 1.488l2.596 19.631c.289 2.082-1.442 3.866-3.461 3.866-8.366 0-12.405-.594-22.789-.594-6.347 0-19.905.594-28.847.594-8.654 0-9.52-9.22-5.77-9.815 16.732-3.569 23.366-8.923 28.847-13.682 1.154-.893 2.596-1.488 3.75-1.488z" fill="#14365B"/><path d="M265.06 439.649l.629 15.208h23.269l-.943-15.208H265.06z" fill="#F29994"/><path d="M262.886 448.635s-14.009-124.064-15.208-180.217c-.389-18.19 2.061-43.452 4.345-60.696h38.021l-2.503 60.696c-2.159 55.193 2.503 180.217 2.503 180.217h-27.158z" fill="url(#paint1_linear_480_658)"/><path d="M253.135 98.246s-3.056 9.69-3.802 18.181c-.822 9.361-9.802 26.116-4.593 35.893 12.172 15.751 6.107 39.829 8.395 54.021h71.96c-1.2-29.276-1.2-47.274 12.712-107.506 0 0-15.111-3.36-30.462-4.08-11.994-.48-22.068-.96-32.622 0-14.152 1.2-21.588 3.491-21.588 3.491z" fill="#FFEDBA"/><path d="M303.987 57.8c-2.159 10.559-4.078 29.756 3.118 36.715 0 0-2.879 10.559-22.308 10.559-21.587 0-10.314-10.559-10.314-10.559 11.754-2.88 11.514-11.518 9.355-19.677L303.987 57.8z" fill="url(#paint2_linear_480_658)"/><path d="M295.831 64.76l-11.753 10.078c.48 1.92.959 3.84.959 5.76 4.558-.72 10.555-5.52 11.034-10.32.24-2.16.24-4.32-.24-5.519z" fill="#F29994"/><path d="M267.413 49.15c-7.697-11.547-5.269-22.223 0-28.179h20.619c.687 9.164 2.062 28.454 2.062 32.302 0 3.85 19.702-2.749 17.869 1.375-4.582-.916-32.852 6.048-40.55-5.498z" fill="#0F264C"/><path d="M315.021 38.602c-4.078 17.038-5.517 24.477-15.831 31.676-15.591 11.039-35.5 2.16-36.699-15.838-.96-16.078 5.996-41.514 23.986-45.354 18.23-3.6 32.862 12.479 28.544 29.516z" fill="url(#paint3_linear_480_658)"/><path d="M294.025 450.512h-33.958l-2.612-10.811 38.021-1.138-1.451 11.949z" fill="#4B2A2A"/><path d="M284.079 240.177c-7.974 15.955-5.103 41.125-3.811 62.597 1.585 26.325 3.014 48.73 6.449 61.947 3.118-36.236 8.635-80.63 12.713-113.026-2.399-18.477-7.196-27.836-15.351-11.518z" fill="#EE4D47" fill-opacity=".29" style="mix-blend-mode:multiply"/><path d="M356.853 446.167l-22.812-92.337v-90.706l-6.723-54.859h-40.737c-4.78 30.417 5.818 113.7 14.327 156.972l26.41 80.93h29.535z" fill="url(#paint4_linear_480_658)"/><path d="M340.015 479.299l-6.518-26.071h22.813l3.802 26.071h-20.097z" fill="#FFC3BD"/><path d="M331.383 490.588l7.844-11.832h20.73c2.562 1.535 3.727 11.139 4.485 17.585.295 2.51-1.267 4.913-3.696 5.61L343.149 507h-25.458a3.677 3.677 0 01-3.676-3.747c0-7.349 12.111-12.052 17.368-12.665z" fill="#14365B"/><path fill-rule="evenodd" clip-rule="evenodd" d="M356.864 457.03l-.554-3.802h-22.813l.951 3.802h22.416z" fill="#F29994"/><path d="M361.376 453.771h-33.957l-2.612-10.811 38.02-1.139-1.451 11.95z" fill="#4B2A2A"/><circle r="20.619" transform="matrix(1 0 0 -1 325.146 34.03)" fill="#0F264C"/><path d="M287.965 38.581c.254-1.435-.28-2.73-1.193-2.892-.913-.162-1.859.87-2.114 2.306-.254 1.436.28 2.73 1.194 2.893.913.161 1.859-.871 2.113-2.307zm-15.881-2.618c-.24 1.44-1.199 2.4-2.159 2.16-.959-.24-1.439-1.44-1.199-2.88s1.2-2.4 2.159-2.16c.959.24 1.439 1.44 1.199 2.88z" fill="#0F264C"/><path d="M271.365 33.323l-3.118-1.68c-.24 0 1.199 2.88 3.118 1.68z" fill="#0F264C"/><path d="M275.922 39.082s-3.358 5.52-6.716 8.16c1.439 2.159 4.797 1.919 4.797 1.919l1.919-10.079z" fill="#ED847E"/><path d="M282.124 57.268c-1.059 0-2.118 0-3.53-.345-.353 0-.706-.345-.353-.69 0-.344.353-.69.706-.344 9.177 1.724 14.472-3.794 14.472-3.794.353-.345.706-.345.706 0 .353.345.353.69 0 .69 0 0-4.236 4.483-12.001 4.483z" fill="#0F264C"/><path d="M324.39 23.355c7.994 19.056-8.426 28.802-17.636 31.293l8.818-17.281-1.764-9.341c-8.033-4.982-21.985-15.133-13.52-15.88 10.581-.934 21.162 4.204 24.102 11.21z" fill="#D3D86C"/><path d="M287.436 7.886c-7.916 4.56 11.513 47.514 25.905 41.515 14.392-6 9.595-29.996 2.639-35.995-7.196-6.24-17.511-11.999-28.544-5.52z" fill="#0F264C"/><path d="M321.708 23.033c9.347 28.041-9.851 42.382-20.618 46.048l10.309-25.43-2.062-13.745c-9.393-7.331-25.704-22.268-15.808-23.368 12.372-1.374 24.743 6.186 28.179 16.495z" fill="#0F264C"/><path d="M282.879 5.727s-9.595 1.44-15.831 13.198c-6.477 11.998 30.223-11.519 24.945-13.198-5.037-1.68-9.114 0-9.114 0z" fill="#0F264C"/><path d="M315.741 51.56c-1.44 3.36-4.078 5.76-6.956 6.96-4.078 1.68-6.717-1.92-5.997-6.24.72-3.839 3.598-9.118 8.155-9.118 4.318 0 6.477 4.32 4.798 8.399z" fill="url(#paint5_linear_480_658)"/><path fill-rule="evenodd" clip-rule="evenodd" d="M345.482 117.552c4.078 9.599 7.196 19.198 10.075 29.037 2.878 9.838 5.277 19.917 6.476 30.476.24 2.639.48 5.279.72 8.159v2.16c0 .034.004.102.011.2.042.588.16 2.233-.251 3.879-.24.96-.72 2.16-1.439 3.12-.72 1.2-1.679 2.159-2.639 2.879-2.159 1.44-4.078 1.92-5.517 2.16-.994.166-1.873.103-2.638.048a13.57 13.57 0 00-.96-.048c-.45-.113-.9-.172-1.325-.229-.481-.064-.931-.123-1.313-.251-1.679-.48-3.119-.96-4.318-1.44-2.638-1.2-5.037-2.399-7.436-3.599-9.115-5.28-17.27-11.279-24.945-17.998l.121-.179c-3.261-1.659-5.839-4.762-7.271-6.779l-11.08-12.24 7.196-13.438 12.233 8.399 5.855 17.809 1.223.613c7.604 3.817 15.346 7.704 22.905 10.854a39.084 39.084 0 004.441 1.66 60.512 60.512 0 01-.363-2.62c-.72-4.558-1.919-9.116-3.118-13.675l-.001-.003c-.599-2.28-1.259-4.619-1.919-6.959-.659-2.34-1.319-4.679-1.919-6.959-2.878-9.119-6.236-18.478-9.594-27.357l16.79-7.679z" fill="#FFC3BD"/><path d="M292.473 29.484c-.24 0-.48 0-.72-.24-2.638-2.64-5.517-2.16-5.756-2.16-.48 0-.96-.24-.96-.72s.24-.96.72-.96c.24 0 4.077-.72 7.196 2.64.239.24.239.96 0 1.2-.24.24-.24.24-.48.24zm-26.145-2.16c-.24 0-.48 0-.48-.24-.24-.24-.24-.96 0-1.2 3.118-3.36 6.956-2.64 7.196-2.64.48 0 .719.48.719.96s-.479.72-.959.72c-.24 0-3.118-.48-5.757 2.16-.24.24-.48.24-.719.24z" fill="#0F264C"/><path d="M337.807 98.595c7.196 2.16 15.832 27.116 15.832 27.116l-28.065 19.918s-10.314-20.638-7.196-29.996c3.358-9.599 11.274-19.438 19.429-17.038z" fill="#FFEDBA"/><path d="M254.432 478.756c-2.975 0-5.951-.434-7.651-2.171-.85-.868-1.275-2.171-1.275-3.908 0-.868.425-1.737 1.275-2.171 3.826-2.171 16.153 4.342 17.853 5.211.426 0 .425.434.425.868s-.425.434-.425.434c-2.975 1.303-6.801 1.737-10.202 1.737zm-5.526-6.513c-.425 0-.85 0-1.275.434-.425 0-.425.434-.425.869 0 .868 0 1.736.85 2.605 1.701 1.736 7.227 2.171 14.028.868-4.676-2.605-10.202-4.776-13.178-4.776z" fill="#9FC6FF"/><path d="M264.206 477.67c-4.261-1.58-11.505-7.901-11.079-11.061 0-.79.853-1.58 2.983-1.975 1.705 0 2.983.395 4.262 1.185 3.835 3.16 4.687 11.061 4.687 11.061 0 .395 0 .395-.426.79h-.427zm-7.67-11.851h-.426c-1.278 0-1.278.79-1.278.79-.426 1.975 4.687 7.11 8.522 9.086-.426-2.371-1.278-7.111-3.835-9.086-.852-.395-1.704-.79-2.983-.79zm77.87 16.102c-2.332-1.714-4.414-3.768-4.746-6.108-.166-1.17.251-2.436 1.251-3.797.5-.681 1.333-1.116 2.25-.967 4.248.502 10.158 12.705 10.991 14.365.333.245.083.585-.167.925-.25.34-.583.096-.583.096-3.082-.693-6.331-2.556-8.996-4.514zm-.58-8.287c-.333-.245-.666-.489-1.249-.394-.333-.245-.584.095-.834.436-.5.68-1 1.361-.833 2.531.332 2.34 4.413 5.863 10.493 8.759-2.164-4.735-5.245-9.618-7.577-11.332z" fill="#9FC6FF"/><path d="M342.692 486.698c-2.43-3.692-4.467-12.817-2.313-15.048.455-.619 1.578-.748 3.475.17 1.336.981 2.11 2.027 2.657 3.382 1.186 4.686-2.696 11.368-2.696 11.368-.228.31-.228.31-.789.374l-.334-.246zm.813-13.704l-.334-.245c-1.002-.737-1.457-.118-1.457-.118-1.471 1.303-.421 8.272 1.447 12.029 1.031-2.103 3.093-6.309 2.227-9.329-.44-.801-.881-1.601-1.883-2.337z" fill="#9FC6FF"/><path d="M326.054 202.022l1.919 6.479c.24.48-.24.96-1.2.96h-74.118c-.719 0-1.199-.24-1.199-.72l-.72-6.479c0-.48.48-.72 1.2-.72h72.919c.719-.24 1.199 0 1.199.48z" fill="#F18069"/><path d="M316.459 210.181h1.919c.48 0 .72-.24.72-.48l-.96-8.399c0-.24-.479-.48-.719-.48H315.5c-.48 0-.72.24-.72.48l.96 8.399c0 .24.24.48.719.48zm-58.286 0h1.919c.48 0 .72-.24.72-.48l-.96-8.399c0-.24-.48-.48-.719-.48h-1.919c-.48 0-.72.24-.72.48l.959 8.399c0 .24.48.48.72.48zm29.023 0h1.919c.479 0 .719-.24.719-.48l-.959-8.399c0-.24-.48-.48-.72-.48h-1.919c-.48 0-.719.24-.719.48l.959 8.399c0 .24.48.48.72.48z" fill="#6A2828"/><path d="M287.196 35.963l-3.118-1.68c0 .24 1.199 3.12 3.118 1.68z" fill="#0F264C"/><path d="M119.379 34.106h-18.105l-2.452-10.943s7.167 4.15 8.864 1.32c1.697-2.83 1.32-1.698 3.018-1.32 1.697.377 1.697-1.887 3.771-.566 2.264 1.51 5.658 8.679 4.904 11.509z" fill="#6B1912"/><path d="M100.709 483.718l22.254-1.887-1.132-27.546-22.442 2.075 1.32 27.358z" fill="#D88D6C"/><path d="M142.199 479.944s-14.71-6.792-17.162-11.697c0 0-4.338-15.849-10.938-7.547 0 0-6.79 5.471-16.408 1.132l-1.131 29.999 66.573-.189c-1.698-4.528-3.206-9.622-20.934-11.698z" fill="url(#paint6_linear_480_658)"/><path d="M96.56 492.02l-.377 4.716 67.138-.188c0-1.887.566-2.83-.377-4.717l-66.384.189z" fill="#C73E39"/><path d="M3.206 479.944l22.254 3.774 5.846-26.792-22.065-3.773-6.035 26.791z" fill="#D88D6C"/><path d="M46.016 479.944s-14.71-6.792-17.162-11.697c0 0 3.395-12.453-4.526-6.227 0 0-13.579 5.095-19.236-1.132L.565 492.02l66.573-.189c-2.074-4.717-3.583-9.811-21.122-11.887z" fill="url(#paint7_linear_480_658)"/><path d="M.377 492.02L0 496.737l67.139-.189c0-1.887.566-2.83-.377-4.717l-66.385.189z" fill="#C73E39"/><path d="M126.734 224.101s3.961 113.394.377 242.259c0 0-10.749 10.188-31.117 3.396 0 0 .188-143.393-5.281-200.373 0 0-25.649 108.3-58.086 202.071 0 0-21.689 4.151-29.42-8.113-.001 0 43.753-151.883 50.165-239.24h73.362z" fill="url(#paint8_linear_480_658)"/><path d="M126.734 224.101H53.371c-.565 6.604-1.131 13.585-2.074 20.755 43.753.188 66.95-10.943 75.625-16.038 0-3.207-.188-4.717-.188-4.717z" fill="#402B2B" fill-opacity=".45" style="mix-blend-mode:multiply"/><path d="M166.716 145.235c-20.179-35.659-36.021-47.734-36.021-47.734-8.675 4.905-2.075 38.489-2.075 38.489 5.47 10.755 9.241 20.377 17.351 29.811l20.745-20.566z" fill="#D1402C"/><path d="M130.694 97.5s-.943 21.698-3.771 126.035c0 0-25.649 13.019-76.758 3.963 0 0-.188-31.32-7.166-59.056 0 0-13.013-52.263-6.412-67.545 0 0 41.679-25.849 94.107-3.396z" fill="url(#paint9_linear_480_658)"/><path d="M91.09 76.821l.377 13.51s-3.206 4.717-10.938 5.283c-7.732.377-11.504-3.962-11.504-3.962l-.755-20.113c9.619 4.15 19.048 5.849 22.82 5.282z" fill="url(#paint10_linear_480_658)"/><path d="M90.336 71.275l.754 14.905c-3.771.566-13.201-1.132-22.63-5.283l-.566-9.622h22.442z" fill="url(#paint11_linear_480_658)" style="mix-blend-mode:multiply"/><path d="M39.227 130.33s11.127 25.094 15.088 36.414c3.96 11.132 3.96 55.471 24.706 63.961 0 0-22.066-1.321-29.044-3.207 0 0-.377-33.396-7.166-59.056 0 0-4.715-26.98-6.601-39.244l3.017 1.132z" fill="#EE4D47" fill-opacity=".29" style="mix-blend-mode:multiply"/><path d="M53.938 38.445c.377.19.754 6.227.754 6.227l1.509 12.64 6.978 5.472 3.96 1.698s5.846-2.452 5.092-4.716c-.754-2.076-4.526-31.886-5.28-31.886-.755 0-6.79 4.34-6.79 4.34l-6.224 6.225zm55.257-11.32c1.697 0-.943 20.754-.943 20.754l-3.017-8.301-2.075-10 6.035-2.453z" fill="#402B2B"/><path d="M106.366 31.276l3.206 26.603s1.132 22.452-17.35 23.773c-18.482 1.132-31.118-17.17-31.118-17.17s-2.263 2.642-4.715-1.886c-2.263-4.528-.754-10.566 2.452-11.132 3.395-.377 4.904 1.51 5.28 4.34.378 2.83.755 4.905.755 4.905l2.829-.377-2.075-21.887s4.338-8.49 9.241-10.188c4.904-1.698 9.241 5.094 9.241 5.094s4.527.944 8.864 0c4.338-.943 7.167-2.075 7.167-2.075s2.64.754 6.223 0z" fill="url(#paint12_linear_480_658)"/><path d="M92.976 71.463c-6.224.378-7.166-6.792-7.166-6.792s14.332-1.698 14.71-1.887c0 0 1.131 8.113-7.544 8.68z" fill="#893D43"/><path d="M86.376 66.935c-.566-1.32-.755-2.264-.755-2.264s14.333-1.698 14.71-1.887c0 0 .189.944 0 2.453l-13.956 1.698z" fill="#FFFEFF"/><path d="M86.942 24.483V5.24c-11.504.566-23.385 2.83-29.232 10-6.978 8.49-3.017 28.112-3.017 28.112s8.486-.943 9.995-3.774c1.509-2.83 15.842-6.792 26.78-6.226 10.939.566 16.219-.566 21.688-5.283 1.132-.943 2.075-2.264 2.829-3.773H86.942v.188z" fill="#402B2B"/><path d="M53.372 36.181s8.11-2.641 21.688-3.773c22.82-9.623 32.626-7.925 32.626-7.925s-.188-7.358-2.263-12.452C103.349 6.937 89.393-.233 77.7.899 66.007 2.031 53.937 10.71 52.051 19.012c-1.508 6.415 1.32 17.17 1.32 17.17z" fill="url(#paint13_linear_480_658)"/><path d="M67.139 33.351c2.451-11.698 19.99-17.547 32.438-17.358 12.258.189 20.933 10.377 22.253 17.358.566 2.83-1.697 3.208-2.451.755-.566-1.698-1.698-9.811-13.013-8.868-11.316.944-10.75 11.132-16.408 12.075-5.28.944-11.315-2.83-22.82-3.962z" fill="url(#paint14_linear_480_658)"/><path d="M105.046 35.993v-1.321c-.566 0-4.903-.566-10.184.566l.189 2.075c4.337-1.32 9.995-1.32 9.995-1.32zM73.174 40.71c3.395-1.887 9.807-2.83 9.807-3.02l-.754-1.886c-.189 0-6.035 1.132-9.807 3.585l.754 1.32z" fill="#402B2B"/><path d="M92.033 47.124s.566 3.963 2.075 5.095c1.508 1.132 4.149 2.075 4.526 3.018.377.755-.377 2.265-2.075 2.83-1.697.567-1.885 1.133-1.885 1.133s3.394.377 5.092-1.698c1.697-2.076-.189-3.774-1.886-4.717-1.698-.944-2.452-1.321-3.206-1.887-.944-.566-2.64-3.774-2.64-3.774z" fill="#D87C60"/><path d="M83.924 49.2c0 1.887-1.32 3.585-3.018 3.585-1.697 0-3.017-1.51-3.017-3.585 0-1.887 1.32-3.585 3.017-3.585 1.697 0 3.018 1.51 3.018 3.585zm20.745-2.453c0 1.887-1.32 3.585-3.018 3.585-1.697 0-3.017-1.51-3.017-3.585 0-1.887 1.32-3.585 3.017-3.585 1.698.189 3.018 1.698 3.018 3.585z" fill="#402B2B"/><path d="M197.079 97.312H80.529v89.998h116.55V97.312z" fill="#8C5E5E"/><path d="M197.267 97.312h-42.433v89.998h42.433V97.312z" fill="#694646"/><path d="M182.746 97.312h-10.938v12.452h10.938V97.312zm-62.612 0h-10.939v12.452h10.939V97.312z" fill="#A3774A"/><path d="M197.268 163.537s-6.035 3.962-7.732 5.66c-1.698 1.698-4.715 17.924-1.698 19.622 3.018 1.698 8.864 0 10.75.377 2.075.378 8.109-3.396 8.109-6.414 0-3.019-3.771-23.019-4.714-23.396-.943-.377-4.715-2.83-4.715-2.83v6.981z" fill="#F4A984"/><path d="M121.453 162.216H85.055v17.735h36.398v-17.735z" fill="#fff"/><path fill-rule="evenodd" clip-rule="evenodd" d="M49.222 185.234C35.456 165.235 33.57 104.67 33.57 104.67c18.86 2.453 31.495 27.735 31.495 27.924l2.83 36.226 48.13 7.712 2.601-2.429s11.127-5.661 20.179-4.717c0 0 4.149.755 3.206 3.207-.377 1.321.378 2.17 1.132 3.019.754.849 1.509 1.698 1.132 3.019-.319 1.114-.033 1.96.248 2.792.386 1.14.762 2.255-.437 4 0 0 1.509 2.264-.189 4.34l-.243.298c-1.791 2.195-5.286 6.477-6.546 6.117-.474-.136-1.578-.32-2.818-.526-2.215-.369-4.861-.81-5.103-1.173-.377-.566-.754-1.698 1.132-2.83 0 0-2.075.566-4.715.189-2.64-.189-6.412-2.264-6.412-2.264l-.701-.584c-52.899 4.34-69.267-3.756-69.267-3.756z" fill="url(#paint15_linear_480_658)"/><path d="M70.345 160.141l-5.28-27.736s-9.619-29.055-28.478-31.508c0 0-13.579 8.49 3.206 66.225l30.552-6.981z" fill="url(#paint16_linear_480_658)"/><defs><linearGradient id="paint0_linear_480_658" x1="261.207" y1="191.586" x2="255.873" y2="136.621" gradientUnits="userSpaceOnUse"><stop stop-color="#FFB3B6"/><stop offset="1" stop-color="#FFC8C1"/></linearGradient><linearGradient id="paint1_linear_480_658" x1="266.717" y1="155.301" x2="266.717" y2="455.157" gradientUnits="userSpaceOnUse"><stop stop-color="#F4A984"/><stop offset="1" stop-color="#EE4D47"/></linearGradient><linearGradient id="paint2_linear_480_658" x1="292.217" y1="99.091" x2="292.437" y2="35.509" gradientUnits="userSpaceOnUse"><stop stop-color="#FFB3B6"/><stop offset="1" stop-color="#FFC8C1"/></linearGradient><linearGradient id="paint3_linear_480_658" x1="318.187" y1="67.061" x2="311.862" y2="22.195" gradientUnits="userSpaceOnUse"><stop stop-color="#FFB3B6"/><stop offset="1" stop-color="#FFC8C1"/></linearGradient><linearGradient id="paint4_linear_480_658" x1="322.26" y1="157.09" x2="322.26" y2="449.818" gradientUnits="userSpaceOnUse"><stop stop-color="#F4A984"/><stop offset="1" stop-color="#EE4D47"/></linearGradient><linearGradient id="paint5_linear_480_658" x1="316.925" y1="57.029" x2="315.53" y2="46.362" gradientUnits="userSpaceOnUse"><stop stop-color="#FFB3B6"/><stop offset="1" stop-color="#FFC8C1"/></linearGradient><linearGradient id="paint6_linear_480_658" x1="129.846" y1="464.091" x2="129.846" y2="492.749" gradientUnits="userSpaceOnUse"><stop stop-color="#F4A984"/><stop offset="1" stop-color="#EE4D47"/></linearGradient><linearGradient id="paint7_linear_480_658" x1="33.852" y1="453.771" x2="33.852" y2="492.889" gradientUnits="userSpaceOnUse"><stop stop-color="#F4A984"/><stop offset="1" stop-color="#EE4D47"/></linearGradient><linearGradient id="paint8_linear_480_658" x1="65.909" y1="153.949" x2="65.909" y2="472.13" gradientUnits="userSpaceOnUse"><stop stop-color="#822626"/><stop offset=".943" stop-color="#402B2B"/></linearGradient><linearGradient id="paint9_linear_480_658" x1="82.707" y1="55.377" x2="82.707" y2="234.6" gradientUnits="userSpaceOnUse"><stop stop-color="#F4A984"/><stop offset="1" stop-color="#EE4D47"/></linearGradient><linearGradient id="paint10_linear_480_658" x1="72.141" y1="89.358" x2="91.225" y2="97.589" gradientUnits="userSpaceOnUse"><stop stop-color="#FFB3B6"/><stop offset="1" stop-color="#FFC8C1"/></linearGradient><linearGradient id="paint11_linear_480_658" x1="71.764" y1="79.891" x2="90.956" y2="88.019" gradientUnits="userSpaceOnUse"><stop stop-color="#FFB3B6" stop-opacity=".31"/><stop offset="1" stop-color="#FFC8C1"/></linearGradient><linearGradient id="paint12_linear_480_658" x1="112.03" y1="75.192" x2="107.948" y2="38.714" gradientUnits="userSpaceOnUse"><stop stop-color="#FFB3B6"/><stop offset="1" stop-color="#FFC8C1"/></linearGradient><linearGradient id="paint13_linear_480_658" x1="79.647" y1="-18.231" x2="79.647" y2="36.628" gradientUnits="userSpaceOnUse"><stop stop-color="#F4A984"/><stop offset="1" stop-color="#EE4D47"/></linearGradient><linearGradient id="paint14_linear_480_658" x1="78.214" y1="10.557" x2="78.214" y2="67.588" gradientUnits="userSpaceOnUse"><stop stop-color="#F4A984"/><stop offset="1" stop-color="#EE4D47"/></linearGradient><linearGradient id="paint15_linear_480_658" x1="52.143" y1="157.208" x2="149.911" y2="189.798" gradientUnits="userSpaceOnUse"><stop stop-color="#FFB3B6"/><stop offset="1" stop-color="#FFC8C1"/></linearGradient><linearGradient id="paint16_linear_480_658" x1="50.873" y1="81.71" x2="50.873" y2="149.604" gradientUnits="userSpaceOnUse"><stop stop-color="#F4A984"/><stop offset="1" stop-color="#EE4D47"/></linearGradient></defs></svg>